<?xml version="1.0" standalone="no"?>
<!DOCTYPE svg PUBLIC "-//W3C//DTD SVG 1.1//EN" "http://www.w3.org/Graphics/SVG/1.1/DTD/svg11.dtd" >
<svg>
<metadata>
Created by FontForge 20090622 at Fri Mar  8 11:21:38 2019
 By deploy user
Copyright (C) 1996, 2007 Hoefler &#38; Co. http://www.typography.com
</metadata>
<defs>
<font id="Verlag-Bold" horiz-adv-x="459" >
  <font-face 
    font-family="Verlag Bold"
    font-weight="400"
    font-stretch="normal"
    units-per-em="1000"
    panose-1="0 0 0 0 0 0 0 0 0 0"
    ascent="800"
    descent="-200"
    x-height="427"
    cap-height="733"
    bbox="-60 -323 1192 1147"
    underline-thickness="50"
    underline-position="-50"
    unicode-range="U+0020-U+FB04"
  />
<missing-glyph horiz-adv-x="500" 
 />
    <glyph glyph-name="f_f" unicode="ff" horiz-adv-x="662" 
d="M356 731l-13 -96q-16 4 -42 4q-46 0 -66 -23.5t-20 -84.5v-104h120v-92h-120v-335h-113v335h-79v15l79 81v100q0 100 46.5 154.5t137.5 54.5q37 0 70 -9zM679 731l-12 -96q-17 4 -43 4q-45 0 -65.5 -24t-20.5 -84v-104h121v-92h-121v-335h-113v335h-79v15l79 81v100
q0 100 46.5 154.5t137.5 54.5q37 0 70 -9z" />
    <glyph glyph-name="fi" unicode="fi" horiz-adv-x="578" 
d="M526 575q0 -28 -19 -47.5t-47 -19.5t-47.5 19.5t-19.5 47.5t19.5 47.5t47.5 19.5t47 -19.5t19 -47.5zM356 731l-13 -96q-16 4 -42 4q-46 0 -66 -23.5t-20 -84.5v-104h120v-92h-120v-335h-113v335h-79v15l79 81v100q0 100 46.5 154.5t137.5 54.5q37 0 70 -9zM516 0h-114
v427h114v-427z" />
    <glyph glyph-name="fl" unicode="fl" horiz-adv-x="574" 
d="M356 731l-13 -96q-16 4 -42 4q-46 0 -66 -23.5t-20 -84.5v-104h120v-92h-120v-335h-113v335h-79v15l79 81v100q0 100 46.5 154.5t137.5 54.5q37 0 70 -9zM513 0h-113v733h113v-733z" />
    <glyph glyph-name="f_f_i" unicode="ffi" horiz-adv-x="901" 
d="M356 731l-13 -96q-16 4 -42 4q-46 0 -66 -23.5t-20 -84.5v-104h120v-92h-120v-335h-113v335h-79v15l79 81v100q0 100 46.5 154.5t137.5 54.5q37 0 70 -9zM679 731l-12 -96q-17 4 -43 4q-45 0 -65.5 -24t-20.5 -84v-104h121v-92h-121v-335h-113v335h-79v15l79 81v100
q0 100 46.5 154.5t137.5 54.5q37 0 70 -9zM850 575q0 -28 -19.5 -47.5t-47.5 -19.5t-47 19.5t-19 47.5t19 47.5t47 19.5t47.5 -19.5t19.5 -47.5zM840 0h-114v427h114v-427z" />
    <glyph glyph-name="f_f_l" unicode="ffl" horiz-adv-x="898" 
d="M356 731l-13 -96q-16 4 -42 4q-46 0 -66 -23.5t-20 -84.5v-104h120v-92h-120v-335h-113v335h-79v15l79 81v100q0 100 46.5 154.5t137.5 54.5q37 0 70 -9zM679 731l-12 -96q-17 4 -43 4q-45 0 -65.5 -24t-20.5 -84v-104h121v-92h-121v-335h-113v335h-79v15l79 81v100
q0 100 46.5 154.5t137.5 54.5q37 0 70 -9zM837 0h-114v733h114v-733z" />
    <glyph glyph-name=".notdef" horiz-adv-x="500" 
 />
    <glyph glyph-name=".null" horiz-adv-x="0" 
 />
    <glyph glyph-name="nonmarkingreturn" horiz-adv-x="333" 
 />
    <glyph glyph-name="space" unicode=" " horiz-adv-x="215" 
 />
    <glyph glyph-name="exclam" unicode="!" horiz-adv-x="262" 
d="M194 733l-24 -528h-78l-24 528h126zM196 58q0 -28 -19 -47t-46 -19t-46 19t-19 47q0 27 19 46t46 19t46 -19t19 -46z" />
    <glyph glyph-name="quotedbl" unicode="&#x22;" horiz-adv-x="426" 
d="M234 638l-148 -196l-49 33l110 220zM408 628l-148 -197l-50 33l111 221z" />
    <glyph glyph-name="numbersign" unicode="#" horiz-adv-x="613" 
d="M588 440l-18 -82h-106l-30 -132h107l-18 -82h-107l-31 -144h-89l32 144h-107l-31 -144h-90l32 144h-107l19 82h106l29 132h-106l18 82h105l32 143h89l-31 -143h106l32 143h89l-32 -143h107zM374 358h-106l-29 -132h106z" />
    <glyph glyph-name="dollar" unicode="$" horiz-adv-x="480" 
d="M247 665l67 -3l-7 -72q67 -10 120 -43l-37 -93q-43 29 -91 40l-14 -156q82 -32 117 -70t35 -100q0 -74 -51.5 -124t-132.5 -55l-6 -71l-67 3l6 71q-80 10 -153 60l42 95q60 -44 119 -57l15 168q-78 30 -113 67.5t-35 96.5q0 68 49.5 116.5t130.5 54.5zM330 159
q0 46 -56 73l-13 -146q69 9 69 73zM167 432q0 -40 54 -67l11 133q-65 -9 -65 -66z" />
    <glyph glyph-name="percent" unicode="%" horiz-adv-x="706" 
d="M316 443q0 -63 -36 -107t-98 -44q-61 0 -96.5 44t-35.5 107t36 106.5t98 43.5t97 -43.5t35 -106.5zM616 557l-474 -575l-52 44l474 574zM656 141q0 -63 -36 -107t-98 -44t-96.5 43.5t-34.5 107.5q0 63 35.5 106.5t97.5 43.5t97 -43.5t35 -106.5zM236 443q0 38 -13.5 61
t-39.5 23q-25 0 -39 -23t-14 -61t14 -61t39 -23q26 0 39.5 23t13.5 61zM576 141q0 38 -13.5 61t-39.5 23t-39.5 -23t-13.5 -61t14 -61.5t39 -23.5t39 23.5t14 61.5z" />
    <glyph glyph-name="ampersand" unicode="&#x26;" horiz-adv-x="632" 
d="M524 293l70 -58q-53 -67 -96 -111l82 -69l-66 -70q-3 2 -38 31l-51 43q-89 -69 -180 -69q-81 0 -138 44.5t-57 121.5q0 52 36 95.5t98 71.5q-40 63 -40 114q0 66 50 113.5t118 47.5q72 0 116 -43t44 -98q0 -51 -35.5 -94.5t-109.5 -70.5q46 -55 104 -107q42 41 93 108z
M374 449q0 27 -17.5 45t-44.5 18q-26 0 -44.5 -21t-18.5 -52q0 -39 32 -86q93 37 93 96zM357 122q-76 71 -125 132q-31 -13 -50 -37.5t-19 -54.5q0 -36 25 -58t66 -22q46 0 103 40z" />
    <glyph glyph-name="quotesingle" unicode="'" horiz-adv-x="252" 
d="M234 638l-148 -196l-49 33l110 220z" />
    <glyph glyph-name="parenleft" unicode="(" horiz-adv-x="362" 
d="M370 -164l-52 -75q-129 82 -197.5 214.5t-68.5 282.5t68.5 283t197.5 214l52 -74q-109 -70 -164 -180t-55 -243q0 -132 55 -242t164 -180z" />
    <glyph glyph-name="parenright" unicode=")" horiz-adv-x="362" 
d="M310 258q0 -150 -68 -282.5t-198 -214.5l-52 75q109 70 164.5 180t55.5 242t-55.5 242.5t-164.5 180.5l52 74q130 -81 198 -213.5t68 -283.5z" />
    <glyph glyph-name="asterisk" unicode="*" horiz-adv-x="395" 
d="M355 591l-108 -27l72 -84l-63 -45l-59 93l-59 -93l-63 45l72 84l-108 27l24 73l103 -41l-8 109h78l-8 -109l103 41z" />
    <glyph glyph-name="plus" unicode="+" 
d="M399 245h-124v-131h-91v131h-124v87h124v131h91v-131h124v-87z" />
    <glyph glyph-name="comma" unicode="," horiz-adv-x="247" 
d="M190 43q0 -47 -33 -96.5t-87 -76.5l-13 19q53 46 69 104q-30 2 -48 20.5t-18 45.5q0 25 18 43.5t44 18.5q32 0 50 -22.5t18 -55.5z" />
    <glyph glyph-name="hyphen" unicode="-" horiz-adv-x="345" 
d="M297 201h-248v87h248v-87z" />
    <glyph glyph-name="period" unicode="." horiz-adv-x="247" 
d="M59 58q0 27 19 46t46 19t46 -19t19 -46q0 -28 -19 -47t-46 -19t-46 19t-19 47z" />
    <glyph glyph-name="slash" unicode="/" horiz-adv-x="356" 
d="M356 733l-238 -949h-90l239 949h89z" />
    <glyph glyph-name="zero" unicode="0" horiz-adv-x="562" 
d="M520 292q0 -128 -63.5 -215t-176.5 -87q-112 0 -174 87t-62 215t63.5 214.5t176.5 86.5t174.5 -86t61.5 -215zM403 292q0 93 -31 150t-90 57t-90 -57t-31 -150t31 -150t90 -57t90 57t31 150z" />
    <glyph glyph-name="one" unicode="1" horiz-adv-x="376" 
d="M276 0h-113v455l-101 -39l-36 96l220 84h30v-596z" />
    <glyph glyph-name="two" unicode="2" horiz-adv-x="464" 
d="M417 0h-388l-2 47q134 128 193 202q72 87 72 148q0 43 -26 68.5t-73 25.5q-58 0 -115 -38l-38 88q77 52 165 52q92 0 146.5 -50.5t54.5 -126.5q0 -83 -78 -185q-51 -64 -123 -133h212v-98z" />
    <glyph glyph-name="three" unicode="3" horiz-adv-x="455" 
d="M414 529l-175 -188q87 -9 129.5 -52.5t42.5 -111.5q0 -77 -60 -132t-157 -55q-76 0 -159 27l26 94q66 -22 125 -22q51 0 81 22.5t30 63.5q0 39 -32.5 62t-94.5 23q-43 0 -71 -6l-17 39l174 192h-212v98h368z" />
    <glyph glyph-name="four" unicode="4" horiz-adv-x="499" 
d="M477 147h-87v-149h-108v149h-260v60l312 387h56v-355h87v-92zM282 239v152l-122 -152h122z" />
    <glyph glyph-name="five" unicode="5" horiz-adv-x="485" 
d="M440 189q0 -85 -62 -142t-164 -57q-78 0 -156 27l21 96q65 -25 126 -25q59 0 91.5 26.5t32.5 68.5t-32 65.5t-96 23.5q-63 0 -110 -12l-9 11v312h327v-98h-221v-119q30 2 46 2q102 0 154 -49t52 -130z" />
    <glyph glyph-name="six" unicode="6" horiz-adv-x="503" 
d="M458 193q0 -80 -56 -141.5t-150 -61.5q-93 0 -150.5 60t-57.5 151q0 247 328 410l47 -88q-178 -83 -237 -181q40 33 99 33q81 0 129 -52.5t48 -129.5zM348 187q0 48 -25.5 77.5t-67.5 29.5q-47 0 -73.5 -28t-26.5 -78q0 -46 27.5 -77t69.5 -31q45 0 70.5 31t25.5 76z" />
    <glyph glyph-name="seven" unicode="7" horiz-adv-x="458" 
d="M447 583l-258 -583h-114l213 482h-246v101h405z" />
    <glyph glyph-name="eight" unicode="8" horiz-adv-x="510" 
d="M455 157q0 -70 -55.5 -118.5t-144.5 -48.5t-144.5 48.5t-55.5 118.5q0 98 95 141q-83 44 -83 131q0 70 52.5 117t135.5 47t135 -47t52 -117q0 -87 -82 -131q95 -43 95 -141zM337 417q0 35 -23 58.5t-59 23.5t-59 -23.5t-23 -58.5q0 -36 22.5 -59t59.5 -23t59.5 23
t22.5 59zM341 170q0 38 -23.5 61.5t-62.5 23.5t-62.5 -23.5t-23.5 -61.5q0 -37 24 -61.5t62 -24.5t62 24.5t24 61.5z" />
    <glyph glyph-name="nine" unicode="9" horiz-adv-x="498" 
d="M460 379q0 -112 -78 -216.5t-251 -189.5l-47 85q163 82 232 179q-38 -25 -87 -25q-82 0 -131 52t-49 129q0 81 56 140.5t149 59.5q94 0 150 -59.5t56 -154.5zM348 399q0 46 -26.5 75.5t-68.5 29.5q-44 0 -69 -30t-25 -74q0 -48 24.5 -77t67.5 -29q47 0 72 27.5t25 77.5z
" />
    <glyph glyph-name="colon" unicode=":" horiz-adv-x="247" 
d="M59 58q0 27 19 46t46 19t46 -19t19 -46q0 -28 -19 -47t-46 -19t-46 19t-19 47zM59 321q0 26 19 45.5t46 19.5t46 -19.5t19 -45.5q0 -28 -19 -47t-46 -19t-46 19t-19 47z" />
    <glyph glyph-name="semicolon" unicode=";" horiz-adv-x="247" 
d="M190 43q0 -47 -33 -96.5t-87 -76.5l-13 19q53 46 69 104q-30 2 -48 20.5t-18 45.5q0 25 18 43.5t44 18.5q32 0 50 -22.5t18 -55.5zM59 321q0 26 19 45.5t46 19.5t46 -19.5t19 -45.5q0 -28 -19 -47t-46 -19t-46 19t-19 47z" />
    <glyph glyph-name="less" unicode="&#x3c;" horiz-adv-x="394" 
d="M355 113l-65 -68l-252 243l252 244l65 -69l-185 -176z" />
    <glyph glyph-name="equal" unicode="=" horiz-adv-x="431" 
d="M371 326h-311v85h311v-85zM371 166h-311v84h311v-84z" />
    <glyph glyph-name="greater" unicode="&#x3e;" horiz-adv-x="394" 
d="M356 289l-251 -244l-66 70l185 175l-185 175l66 67z" />
    <glyph glyph-name="question" unicode="?" horiz-adv-x="394" 
d="M377 567q0 -41 -19 -75.5t-45.5 -58.5l-53.5 -47t-46 -51.5t-19 -60.5v-57h-101v72q0 46 24.5 86t53.5 64t53.5 55t24.5 61q0 79 -101 79q-51 0 -103 -20l-22 100q75 26 146 26q101 0 154.5 -49t53.5 -124zM208 58q0 -28 -19 -47t-47 -19q-27 0 -46 19t-19 47q0 27 19 46
t46 19q28 0 47 -19t19 -46z" />
    <glyph glyph-name="at" unicode="@" horiz-adv-x="687" 
d="M640 315q0 -101 -67 -150q-29 -21 -68 -21q-60 0 -84 49q-41 -44 -100 -44q-40 0 -66 22t-26 61q0 35 26 57.5t69 22.5q38 0 68 -15v9q0 55 -61 55q-27 0 -64 -10l-8 56q42 14 85 14q63 0 91 -29t28 -89v-64q0 -24 13 -35.5t32 -11.5q21 0 35 11q39 29 39 105
q0 39 -13.5 77.5t-40 73.5t-74 56.5t-108.5 21.5q-96 0 -165.5 -73t-69.5 -174q0 -106 71.5 -177t194.5 -71q52 0 119 23l14 -53q-81 -24 -136 -24q-145 0 -234.5 87.5t-89.5 214.5q0 124 87.5 212.5t208.5 88.5q70 0 128 -25.5t93 -66t54 -88.5t19 -96zM392 220v31
q-22 16 -47 16q-18 0 -30.5 -9.5t-12.5 -24.5q0 -36 43 -36q29 0 47 23z" />
    <glyph glyph-name="A" unicode="A" horiz-adv-x="687" 
d="M690 0h-132l-71 168h-290l-71 -168h-129l338 743h18zM446 267l-104 245l-104 -245h208z" />
    <glyph glyph-name="B" unicode="B" horiz-adv-x="616" 
d="M576 204q0 -87 -79 -149t-219 -62q-88 0 -198 14v718q95 14 188 14q137 0 212.5 -56.5t75.5 -135.5q0 -120 -128 -167q148 -41 148 -176zM427 526q0 48 -35 76.5t-102 28.5q-43 0 -87 -7v-203q27 -3 74 -3q76 0 113 29.5t37 78.5zM442 217q0 49 -42.5 80.5t-120.5 31.5
q-51 0 -76 -3v-220q42 -5 89 -5q73 0 111.5 31.5t38.5 84.5z" />
    <glyph glyph-name="C" unicode="C" horiz-adv-x="719" 
d="M689 57q-108 -69 -239 -69q-173 0 -284 107t-111 271q0 163 111.5 271t283.5 108q127 0 236 -67l-43 -106q-98 56 -195 56q-119 0 -189 -72t-70 -190q0 -117 71 -189t191 -72q102 0 200 58z" />
    <glyph glyph-name="D" unicode="D" horiz-adv-x="772" 
d="M717 373q0 -164 -109.5 -271.5t-316.5 -107.5q-84 0 -211 12v720q107 12 204 12q208 0 320.5 -104t112.5 -261zM583 373q0 117 -73.5 186t-210.5 69q-55 0 -94 -6v-511q37 -6 105 -6q136 0 204.5 73t68.5 195z" />
    <glyph glyph-name="E" unicode="E" horiz-adv-x="594" 
d="M527 0h-447v733h447v-114h-322v-192h291v-110h-291v-203h322v-114z" />
    <glyph glyph-name="F" unicode="F" horiz-adv-x="555" 
d="M527 619h-322v-214h283v-111h-283v-294h-125v733h447v-114z" />
    <glyph glyph-name="G" unicode="G" horiz-adv-x="775" 
d="M426 388h291v-320q-122 -80 -273 -80q-105 0 -193.5 46.5t-142 134t-53.5 197.5q0 166 114.5 272.5t274.5 106.5q136 0 260 -76l-57 -100q-95 61 -197 61q-121 0 -191 -75t-70 -189q0 -116 75 -191.5t185 -75.5q85 0 148 35v144h-171v110z" />
    <glyph glyph-name="H" unicode="H" horiz-adv-x="747" 
d="M667 0h-125v315h-337v-315h-125v733h125v-306h337v306h125v-733z" />
    <glyph glyph-name="I" unicode="I" horiz-adv-x="295" 
d="M210 0h-125v733h125v-733z" />
    <glyph glyph-name="J" unicode="J" horiz-adv-x="503" 
d="M428 733v-497q0 -115 -58 -181.5t-177 -66.5q-99 0 -179 52l47 102q58 -40 130 -40q58 0 85 35t27 107v489h125z" />
    <glyph glyph-name="K" unicode="K" horiz-adv-x="672" 
d="M660 0h-155l-300 352v-352h-125v733h125v-330l288 330h151l-320 -352z" />
    <glyph glyph-name="L" unicode="L" horiz-adv-x="545" 
d="M527 0h-447v733h125v-619h322v-114z" />
    <glyph glyph-name="M" unicode="M" horiz-adv-x="883" 
d="M813 0h-123l-10 439l-231 -350h-15l-233 351l-8 -440h-123l31 742l19 2l325 -486l317 486l20 -2z" />
    <glyph glyph-name="N" unicode="N" horiz-adv-x="758" 
d="M678 -11l-14 -3l-459 484v-470h-125v743l20 4l453 -477v463h125v-744z" />
    <glyph glyph-name="O" unicode="O" horiz-adv-x="851" 
d="M796 366q0 -162 -107.5 -270t-266.5 -108t-263 107.5t-104 270.5t107 271t267 108q159 0 263 -107.5t104 -271.5zM662 366q0 116 -66 191.5t-170 75.5t-170.5 -75.5t-66.5 -191.5q0 -115 66.5 -191t170.5 -76q103 0 169.5 76t66.5 191z" />
    <glyph glyph-name="P" unicode="P" horiz-adv-x="599" 
d="M570 491q0 -114 -77.5 -184.5t-214.5 -70.5q-1 0 -73 3v-239h-125v726q97 12 186 12q145 0 224.5 -69.5t79.5 -177.5zM440 487q0 57 -40 96.5t-113 39.5q-43 0 -82 -6v-268q50 -4 70 -4q82 0 123.5 38.5t41.5 103.5z" />
    <glyph glyph-name="Q" unicode="Q" horiz-adv-x="851" 
d="M809 62l-77 -89l-93 85q-99 -70 -217 -70q-159 0 -263 107.5t-104 270.5t107 271t267 108q159 0 263 -107.5t104 -271.5q0 -128 -75 -227zM662 366q0 115 -66.5 191t-169.5 76q-104 0 -170 -75.5t-66 -191.5q0 -115 66.5 -191t169.5 -76q69 0 124 38l-121 106l77 88
q113 -102 119 -108q37 66 37 143z" />
    <glyph glyph-name="R" unicode="R" horiz-adv-x="633" 
d="M623 0h-145l-160 264q-13 -1 -39 -1q-25 0 -73 2v-265h-125v726q99 12 193 12q149 0 224.5 -64t75.5 -167q0 -71 -37.5 -126.5t-105.5 -85.5zM442 501q0 56 -40.5 90.5t-111.5 34.5q-54 0 -84 -6v-250q31 -4 72 -4q80 0 122 35.5t42 99.5z" />
    <glyph glyph-name="S" unicode="S" horiz-adv-x="537" 
d="M497 207q0 -92 -66 -155.5t-176 -63.5q-120 0 -230 72l43 112q94 -68 191 -68q55 0 83 27.5t28 68.5t-27.5 69t-110.5 63q-93 39 -133.5 89.5t-40.5 118.5q0 84 65.5 144.5t175.5 60.5q105 0 184 -53l-40 -110q-75 52 -147 52q-55 0 -84 -26t-29 -65q0 -36 28.5 -61.5
t98.5 -56.5q106 -46 146.5 -95t40.5 -123z" />
    <glyph glyph-name="T" unicode="T" horiz-adv-x="640" 
d="M615 619h-232v-619h-125v619h-233v114h590v-114z" />
    <glyph glyph-name="U" unicode="U" horiz-adv-x="729" 
d="M658 281q0 -139 -79 -216t-216 -77q-138 0 -214.5 76t-76.5 217v452h125v-443q0 -93 43.5 -140.5t124.5 -47.5q80 0 124 48t44 140v443h125v-452z" />
    <glyph glyph-name="V" unicode="V" horiz-adv-x="688" 
d="M690 733l-338 -743h-16l-339 743h143l206 -488l205 488h139z" />
    <glyph glyph-name="W" unicode="W" horiz-adv-x="969" 
d="M964 733l-232 -745l-20 -2l-228 510l-225 -510l-19 2l-235 745h138l132 -462l204 468h14l205 -465l130 459h136z" />
    <glyph glyph-name="X" unicode="X" horiz-adv-x="703" 
d="M684 0h-150l-183 275l-184 -275h-147l256 362l-256 371h150l183 -275l185 275h146l-256 -361z" />
    <glyph glyph-name="Y" unicode="Y" horiz-adv-x="671" 
d="M656 733l-258 -425v-308h-125v309l-258 424h143l180 -310l178 310h140z" />
    <glyph glyph-name="Z" unicode="Z" horiz-adv-x="650" 
d="M620 718l-389 -604h380v-114h-576l-5 15l389 604h-363v114h559z" />
    <glyph glyph-name="bracketleft" unicode="[" horiz-adv-x="322" 
d="M300 -216h-221v949h221v-87h-126v-776h126v-86z" />
    <glyph glyph-name="backslash" unicode="\" horiz-adv-x="356" 
d="M328 -216h-90l-238 949h89z" />
    <glyph glyph-name="bracketright" unicode="]" horiz-adv-x="322" 
d="M244 -216h-221v86h125v776h-125v87h221v-949z" />
    <glyph glyph-name="asciicircum" unicode="^" horiz-adv-x="470" 
d="M407 491h-107l-65 84l-64 -84h-101l148 177h45z" />
    <glyph glyph-name="underscore" unicode="_" horiz-adv-x="520" 
d="M520 0h-520v68h520v-68z" />
    <glyph glyph-name="grave" unicode="`" horiz-adv-x="470" 
d="M368 532l-33 -53l-204 91l53 97z" />
    <glyph glyph-name="a" unicode="a" 
d="M412 0h-108v41q-51 -49 -124 -49q-65 0 -107.5 36t-42.5 99q0 58 42.5 95.5t112.5 37.5q57 0 115 -27v18q0 95 -103 95q-47 0 -106 -18l-13 85q72 22 137 22q197 0 197 -188v-247zM300 107v53q-44 29 -88 29q-33 0 -54 -16.5t-21 -44.5q0 -29 20 -45.5t57 -16.5
q53 0 86 41z" />
    <glyph glyph-name="b" unicode="b" horiz-adv-x="534" 
d="M495 219q0 -92 -60.5 -159.5t-142.5 -67.5q-75 0 -126 46v-38h-109v733h113v-344q51 46 129 46q84 0 140 -61t56 -155zM382 217q0 58 -28.5 93t-81.5 35q-61 0 -102 -43v-171q38 -48 96 -48q54 0 85 36.5t31 97.5z" />
    <glyph glyph-name="c" unicode="c" horiz-adv-x="432" 
d="M420 35q-68 -43 -143 -43q-110 0 -175.5 63t-65.5 157t65.5 158.5t175.5 64.5q75 0 143 -43l-37 -79q-55 30 -108 30q-56 0 -91.5 -34t-35.5 -96q0 -58 38.5 -93t94.5 -35q55 0 107 30z" />
    <glyph glyph-name="d" unicode="d" horiz-adv-x="531" 
d="M477 0h-109v40q-51 -48 -128 -48q-89 0 -145 62t-56 158q0 92 61.5 157.5t145.5 65.5q70 0 118 -38v336h113v-733zM364 131v164q-39 50 -100 50q-49 0 -80.5 -35t-31.5 -96q0 -60 30 -95.5t84 -35.5q59 0 98 48z" />
    <glyph glyph-name="e" unicode="e" horiz-adv-x="476" 
d="M447 230q0 -36 -3 -51h-296q15 -98 133 -98q50 0 124 23l14 -88q-89 -24 -149 -24q-115 0 -174.5 62t-59.5 158q0 92 58 157.5t158 65.5q93 0 144 -58t51 -147zM150 250h196q-4 44 -29 70t-67 26t-68 -25t-32 -71z" />
    <glyph glyph-name="f" unicode="f" horiz-adv-x="339" 
d="M356 731l-13 -96q-16 4 -42 4q-46 0 -66 -23.5t-20 -84.5v-104h120v-92h-120v-335h-113v335h-79v15l79 81v100q0 100 46.5 154.5t137.5 54.5q37 0 70 -9z" />
    <glyph glyph-name="g" unicode="g" horiz-adv-x="529" 
d="M477 -22q0 -108 -50.5 -155t-148.5 -47q-68 0 -142 21l11 100q58 -20 113 -20q54 0 79 23t25 76v52q-46 -36 -115 -36q-92 0 -151 58.5t-59 157.5q0 94 62 160.5t147 66.5q71 0 120 -39v31h109v-449zM364 124v177q-39 43 -96 43q-52 0 -84 -37.5t-32 -99.5
q0 -56 31.5 -91t87.5 -35t93 43z" />
    <glyph glyph-name="h" unicode="h" horiz-adv-x="515" 
d="M466 0h-114v264q0 77 -67 77q-59 0 -114 -60v-281h-114v733h113v-375q73 77 155 77q69 0 105 -39t36 -104v-292z" />
    <glyph glyph-name="i" unicode="i" horiz-adv-x="237" 
d="M186 575q0 -28 -19.5 -47.5t-47.5 -19.5t-47 19.5t-19 47.5t19 47.5t47 19.5t47.5 -19.5t19.5 -47.5zM176 0h-114v427h114v-427z" />
    <glyph glyph-name="j" unicode="j" horiz-adv-x="237" 
d="M187 575q0 -28 -19.5 -47.5t-47.5 -19.5t-47 19.5t-19 47.5t19 47.5t47 19.5t47.5 -19.5t19.5 -47.5zM177 427v-484q0 -167 -161 -167q-35 0 -73 8l11 94q26 -4 41 -4q35 0 51.5 15.5t16.5 54.5v483h114z" />
    <glyph glyph-name="k" unicode="k" horiz-adv-x="476" 
d="M472 0h-136l-166 202v-202h-113v733h113v-489l158 183h136l-189 -201z" />
    <glyph glyph-name="l" unicode="l" horiz-adv-x="231" 
d="M172 0h-113v733h113v-733z" />
    <glyph glyph-name="m" unicode="m" horiz-adv-x="780" 
d="M731 0h-114v267q0 73 -60 73q-52 0 -106 -59v-281h-114v264q0 40 -14.5 58.5t-47.5 18.5q-52 0 -104 -62v-279h-114v427h110v-71q77 79 154 79q89 0 117 -82q74 82 163 82q64 0 97 -38t33 -105v-292z" />
    <glyph glyph-name="n" unicode="n" horiz-adv-x="512" 
d="M463 0h-114v264q0 40 -15.5 58.5t-49.5 18.5q-58 0 -113 -60v-281h-114v427h110v-71q77 79 158 79q68 0 103 -38.5t35 -104.5v-292z" />
    <glyph glyph-name="o" unicode="o" horiz-adv-x="518" 
d="M482 214q0 -94 -61 -158t-161 -64q-101 0 -162.5 64t-61.5 158q0 93 61.5 157t162.5 64q100 0 161 -63.5t61 -157.5zM370 214q0 61 -30 97.5t-80 36.5q-51 0 -81 -36t-30 -98t30 -98.5t81 -36.5q50 0 80 36.5t30 98.5z" />
    <glyph glyph-name="p" unicode="p" horiz-adv-x="534" 
d="M495 217q0 -94 -60.5 -159.5t-152.5 -65.5q-62 0 -112 28v-236h-113v643h109v-40q56 48 135 48q84 0 139 -61.5t55 -156.5zM382 216q0 57 -29.5 93t-79.5 36q-61 0 -103 -45v-179q34 -39 99 -39q49 0 81 36t32 98z" />
    <glyph glyph-name="q" unicode="q" horiz-adv-x="531" 
d="M477 -217h-113v247q-47 -38 -120 -38q-88 0 -146.5 59.5t-58.5 156.5q0 95 62 161t146 66q68 0 121 -41v33h109v-644zM364 129v166q-39 50 -98 50q-50 0 -82 -37.5t-32 -97.5t31 -93.5t88 -33.5q60 0 93 46z" />
    <glyph glyph-name="r" unicode="r" horiz-adv-x="334" 
d="M319 323q-110 12 -148 -42v-281h-114v427h110v-70q59 78 152 78v-112z" />
    <glyph glyph-name="s" unicode="s" horiz-adv-x="384" 
d="M357 128q0 -59 -47 -97.5t-118 -38.5q-90 0 -169 56l44 81q63 -50 123 -50q61 0 61 44q0 22 -31.5 37.5t-70 25.5t-70 39t-31.5 75q0 58 45.5 96.5t117.5 38.5q71 0 140 -40l-35 -83q-61 37 -110 37q-27 0 -41.5 -11.5t-14.5 -28.5t21.5 -29t52 -21.5t60.5 -23t51.5 -41
t21.5 -66.5z" />
    <glyph glyph-name="t" unicode="t" horiz-adv-x="339" 
d="M321 335h-119v-196q0 -52 51 -52q14 0 37 5l21 -88q-55 -12 -91 -12q-64 0 -97.5 35.5t-33.5 117.5v190h-81v15l81 81v69l113 71v-144h119v-92z" />
    <glyph glyph-name="u" unicode="u" horiz-adv-x="511" 
d="M459 0h-110v66q-74 -74 -155 -74q-69 0 -105 39t-36 104v292h114v-264q0 -76 68 -76q59 0 110 56v284h114v-427z" />
    <glyph glyph-name="v" unicode="v" horiz-adv-x="456" 
d="M461 427l-225 -438h-20l-221 438h127l108 -254l108 254h123z" />
    <glyph glyph-name="w" unicode="w" horiz-adv-x="635" 
d="M636 427l-165 -438h-20l-131 260l-132 -260h-20l-166 438h126l71 -240l110 241h20l113 -241l69 240h125z" />
    <glyph glyph-name="x" unicode="x" horiz-adv-x="458" 
d="M446 0h-125l-92 142l-95 -142h-121l153 212l-153 215h125l93 -143l94 143h121l-151 -213z" />
    <glyph glyph-name="y" unicode="y" horiz-adv-x="461" 
d="M463 427l-302 -643h-113l130 259l-180 384h126l109 -271l107 271h123z" />
    <glyph glyph-name="z" unicode="z" horiz-adv-x="424" 
d="M405 412l-224 -318h219v-94h-378l-5 15l223 318h-204v94h364z" />
    <glyph glyph-name="braceleft" unicode="{" horiz-adv-x="311" 
d="M299 -223q-92 0 -140.5 47t-48.5 135v194q0 34 -13.5 49.5t-48.5 15.5h-23v81h23q35 0 48.5 15.5t13.5 49.5v193q0 88 48.5 135.5t140.5 47.5v-93q-48 0 -70 -22.5t-22 -77.5v-176q0 -47 -15 -70t-58 -43q43 -20 58 -42.5t15 -70.5v-175q0 -56 22 -78.5t70 -22.5v-92z
" />
    <glyph glyph-name="bar" unicode="|" horiz-adv-x="267" 
d="M177 -216h-87v949h87v-949z" />
    <glyph glyph-name="braceright" unicode="}" horiz-adv-x="311" 
d="M286 218h-23q-35 0 -48.5 -15.5t-13.5 -49.5v-194q0 -88 -48 -135t-141 -47v92q48 0 70.5 23t22.5 78v175q0 48 14.5 70.5t57.5 42.5q-43 19 -57.5 42.5t-14.5 70.5v176q0 55 -22.5 77.5t-70.5 22.5v93q92 0 140.5 -47.5t48.5 -135.5v-193q0 -34 13.5 -49.5t48.5 -15.5
h23v-81z" />
    <glyph glyph-name="asciitilde" unicode="~" horiz-adv-x="470" 
d="M406 364q-49 -59 -107 -59q-33 0 -66 19q-31 19 -57 19q-36 0 -68 -38l-40 64q48 59 107 59q33 0 66 -19q29 -18 55 -18q35 0 67 38z" />
    <glyph glyph-name="uni00A0" unicode="&#xa0;" horiz-adv-x="0" 
 />
    <glyph glyph-name="exclamdown" unicode="&#xa1;" horiz-adv-x="262" 
d="M66 676q0 27 19 46t46 19t46 -19t19 -46t-19 -46t-46 -19t-46 19t-19 46zM69 0l23 528h79l23 -528h-125z" />
    <glyph glyph-name="cent" unicode="&#xa2;" horiz-adv-x="437" 
d="M205 -80l6 79q-79 17 -127 74.5t-48 138.5q0 91 60 152.5t152 69.5l6 75l68 -3l-7 -74q56 -10 105 -40l-37 -81q-40 22 -75 29l-22 -256q46 1 101 32l33 -81q-65 -40 -141 -43l-6 -75zM145 213q0 -85 74 -118l21 246q-44 -9 -69.5 -41.5t-25.5 -86.5z" />
    <glyph glyph-name="sterling" unicode="&#xa3;" horiz-adv-x="474" 
d="M457 551l-38 -98q-53 37 -108 37q-43 0 -64.5 -28t-21.5 -75v-54h120v-93h-120v-140h228v-100h-416v100h75v140h-73v7l73 74v73q0 88 53 144t151 56q69 0 141 -43z" />
    <glyph glyph-name="yen" unicode="&#xa5;" horiz-adv-x="547" 
d="M522 583l-153 -248h112v-82h-148v-62h148v-79h-148v-112h-114v112h-152v79h152v62h-152v82h116l-158 248h130l123 -211l118 211h126z" />
    <glyph glyph-name="section" unicode="&#xa7;" horiz-adv-x="476" 
d="M427 292q0 -56 -58 -91q36 -28 36 -77q0 -58 -48 -96.5t-123 -38.5q-94 0 -172 55l43 82q28 -22 65 -36t67 -14q61 0 61 42q0 19 -24 31.5t-58 22t-67.5 21.5t-57.5 37.5t-24 62.5q0 59 59 92q-36 29 -36 73q0 58 48 97t121 39q78 0 144 -41l-35 -82q-62 37 -113 37
q-28 0 -44 -12t-16 -29q0 -20 36.5 -35t79.5 -25.5t79.5 -40t36.5 -74.5zM321 281q0 20 -23.5 33.5t-81.5 30.5q-21 -3 -33 -14t-12 -26q0 -10 5 -17t18.5 -13.5l22.5 -10.5t33.5 -11.5t35.5 -11.5q35 10 35 40z" />
    <glyph glyph-name="dieresis" unicode="&#xa8;" horiz-adv-x="470" 
d="M389 557q0 -26 -18.5 -44.5t-43.5 -18.5q-26 0 -44.5 18.5t-18.5 44.5t18.5 44.5t44.5 18.5t44 -18.5t18 -44.5zM207 557q0 -26 -18.5 -44.5t-44.5 -18.5t-44.5 19t-18.5 44q0 26 18.5 44.5t44.5 18.5t44.5 -18.5t18.5 -44.5z" />
    <glyph glyph-name="copyright" unicode="&#xa9;" horiz-adv-x="842" 
d="M792 366q0 -157 -108.5 -267.5t-262.5 -110.5t-262.5 110.5t-108.5 267.5t108.5 268t262.5 111t262.5 -111t108.5 -268zM725 366q0 133 -89 226.5t-215 93.5t-215 -93.5t-89 -226.5q0 -132 89 -225.5t215 -93.5t215 93.5t89 225.5zM560 212q-56 -35 -121 -35
q-89 0 -145.5 54t-56.5 138q0 83 56.5 137.5t145.5 54.5q62 0 118 -33l-24 -63q-47 27 -94 27q-56 0 -88.5 -33.5t-32.5 -89.5q0 -55 33 -88.5t89 -33.5q49 0 97 28z" />
    <glyph glyph-name="ordfeminine" unicode="&#xaa;" horiz-adv-x="370" 
d="M333 410h-94v31q-35 -37 -92 -37q-50 0 -83 27.5t-33 75.5q0 44 33 73t87 29q44 0 86 -20v12q0 70 -78 70q-30 0 -80 -13l-10 70q51 17 106 17q158 0 158 -147v-188zM237 493v39q-28 20 -61 20q-23 0 -38 -11.5t-15 -31.5q0 -44 53 -44q36 0 61 28z" />
    <glyph glyph-name="guillemotleft" unicode="&#xab;" horiz-adv-x="472" 
d="M432 9h-106l-105 164l105 163h106l-109 -163zM259 9h-106l-105 164l105 163h106l-109 -163z" />
    <glyph glyph-name="registered" unicode="&#xae;" horiz-adv-x="386" 
d="M135 487v170q21 3 50 3q37 0 55.5 -15.5t18.5 -40.5q0 -36 -31 -50l42 -67h-43l-33 58q-4 -1 -9 -1q-7 0 -13 1v-58h-37zM172 626v-50q6 -1 14 -1q33 0 33 28q0 24 -31 24q-11 0 -16 -1zM193 427q57 0 97.5 42.5t40.5 101.5q0 60 -40 103t-98 43q-57 0 -97.5 -43
t-40.5 -103q0 -59 40.5 -101.5t97.5 -42.5zM193 398q-70 0 -120 51t-50 122q0 73 49.5 124t120.5 51t121 -51t50 -124q0 -71 -50 -122t-121 -51z" />
    <glyph glyph-name="macron" unicode="&#xaf;" horiz-adv-x="470" 
d="M379 504h-287v86h287v-86z" />
    <glyph glyph-name="degree" unicode="&#xb0;" horiz-adv-x="410" 
d="M317 581q0 -46 -31.5 -76.5t-80.5 -30.5t-80.5 30.5t-31.5 76.5t31.5 77.5t80.5 31.5t80.5 -31.5t31.5 -77.5zM252 582q0 23 -13 38t-34 15q-20 0 -33 -15t-13 -38q0 -24 13 -38.5t33 -14.5q21 0 34 14.5t13 38.5z" />
    <glyph glyph-name="acute" unicode="&#xb4;" horiz-adv-x="470" 
d="M350 568l-202 -89l-29 55l182 134z" />
    <glyph glyph-name="paragraph" unicode="&#xb6;" horiz-adv-x="625" 
d="M550 0h-86v486q-34 4 -65 5v-491h-86v150q-106 -5 -181 51t-75 154q0 105 89 172t236 67q72 0 168 -12v-582zM313 251v237q-64 -9 -98 -42.5t-34 -83.5q0 -55 37.5 -84t94.5 -27z" />
    <glyph glyph-name="periodcentered" unicode="&#xb7;" horiz-adv-x="287" 
d="M79 366q0 27 19 46t46 19t46 -19t19 -46t-19 -46t-46 -19t-46 19t-19 46z" />
    <glyph glyph-name="cedilla" unicode="&#xb8;" horiz-adv-x="470" 
d="M357 -152q0 -43 -30 -72.5t-84 -29.5q-56 0 -120 38l28 61q53 -33 95 -33q36 0 36 34q0 42 -96 45l-4 9l31 117l50 -13l-13 -55q107 -25 107 -101z" />
    <glyph glyph-name="ordmasculine" unicode="&#xba;" horiz-adv-x="388" 
d="M368 575q0 -72 -47.5 -121.5t-126.5 -49.5t-126.5 49.5t-47.5 121.5t47.5 121t126.5 49t126.5 -49t47.5 -121zM272 575q0 45 -21 70.5t-57 25.5q-37 0 -57.5 -25.5t-20.5 -70.5t20.5 -71t57.5 -26q36 0 57 26t21 71z" />
    <glyph glyph-name="guillemotright" unicode="&#xbb;" horiz-adv-x="472" 
d="M425 173l-105 -164h-107l110 164l-110 163h107zM252 173l-105 -164h-107l110 164l-110 163h107z" />
    <glyph glyph-name="questiondown" unicode="&#xbf;" horiz-adv-x="394" 
d="M186 676q0 27 19 46t47 19q27 0 46 -19t19 -46t-19 -46t-46 -19q-28 0 -47 19t-19 46zM17 166q0 41 19 75.5t45.5 59l53.5 47.5t46 51.5t19 59.5v57h101v-72q0 -38 -16 -70.5t-39 -56t-46 -44.5t-39 -45.5t-16 -49.5q0 -79 101 -79q48 0 103 21l22 -100q-78 -27 -146 -27
q-100 0 -154 49t-54 124z" />
    <glyph glyph-name="Agrave" unicode="&#xc0;" horiz-adv-x="687" 
d="M690 0h-132l-71 168h-290l-71 -168h-129l338 743h18zM446 267l-104 245l-104 -245h208zM399 844l-33 -53l-204 91l53 97z" />
    <glyph glyph-name="Aacute" unicode="&#xc1;" horiz-adv-x="687" 
d="M690 0h-132l-71 168h-290l-71 -168h-129l338 743h18zM446 267l-104 245l-104 -245h208zM514 880l-202 -89l-29 55l182 134z" />
    <glyph glyph-name="Acircumflex" unicode="&#xc2;" horiz-adv-x="687" 
d="M690 0h-132l-71 168h-290l-71 -168h-129l338 743h18zM446 267l-104 245l-104 -245h208zM512 805h-107l-65 84l-64 -84h-101l148 177h45z" />
    <glyph glyph-name="Atilde" unicode="&#xc3;" horiz-adv-x="687" 
d="M690 0h-132l-71 168h-290l-71 -168h-129l338 743h18zM446 267l-104 245l-104 -245h208zM516 866q-49 -59 -107 -59q-33 0 -66 19q-31 19 -57 19q-36 0 -68 -38l-40 64q48 59 107 59q33 0 66 -19q29 -18 55 -18q35 0 67 38z" />
    <glyph glyph-name="Adieresis" unicode="&#xc4;" horiz-adv-x="687" 
d="M690 0h-132l-71 168h-290l-71 -168h-129l338 743h18zM446 267l-104 245l-104 -245h208zM497 869q0 -26 -18.5 -44.5t-43.5 -18.5q-26 0 -44.5 18.5t-18.5 44.5t18.5 44.5t44.5 18.5t44 -18.5t18 -44.5zM315 869q0 -26 -18.5 -44.5t-44.5 -18.5t-44.5 19t-18.5 44
q0 26 18.5 44.5t44.5 18.5t44.5 -18.5t18.5 -44.5z" />
    <glyph glyph-name="Aring" unicode="&#xc5;" horiz-adv-x="687" 
d="M461 811q0 -41 -24.5 -72t-65.5 -39l319 -700h-132l-71 168h-290l-71 -168h-129l318 700q-41 9 -65 40t-24 71q0 47 32.5 80.5t84.5 33.5t85 -33.5t33 -80.5zM446 267l-104 245l-104 -245h208zM394 811q0 25 -14.5 41t-36.5 16q-21 0 -35 -16t-14 -41t14 -41t35 -16
q22 0 36.5 16t14.5 41z" />
    <glyph glyph-name="AE" unicode="&#xc6;" horiz-adv-x="1017" 
d="M950 0h-446v180h-245l-122 -180h-143l510 733h446v-114h-321v-192h290v-110h-290v-203h321v-114zM504 283v266l-178 -266h178z" />
    <glyph glyph-name="Ccedilla" unicode="&#xc7;" horiz-adv-x="719" 
d="M559 -147q0 -43 -30 -72.5t-84 -29.5q-56 0 -120 38l28 61q53 -33 95 -33q36 0 36 34q0 42 -96 45l-4 9l22 85q-156 13 -253.5 118t-97.5 258q0 163 111.5 271t283.5 108q127 0 236 -67l-43 -106q-98 56 -195 56q-119 0 -189 -72t-70 -190q0 -117 71 -189t191 -72
q102 0 200 58l38 -106q-103 -66 -229 -69l-8 -34q107 -25 107 -101z" />
    <glyph glyph-name="Egrave" unicode="&#xc8;" horiz-adv-x="594" 
d="M527 0h-447v733h447v-114h-322v-192h291v-110h-291v-203h322v-114zM361 844l-33 -53l-204 91l53 97z" />
    <glyph glyph-name="Eacute" unicode="&#xc9;" horiz-adv-x="594" 
d="M475 880l-202 -89l-29 55l182 134zM527 0h-447v733h447v-114h-322v-192h291v-110h-291v-203h322v-114z" />
    <glyph glyph-name="Ecircumflex" unicode="&#xca;" horiz-adv-x="594" 
d="M473 805h-107l-65 84l-64 -84h-101l148 177h45zM527 0h-447v733h447v-114h-322v-192h291v-110h-291v-203h322v-114z" />
    <glyph glyph-name="Edieresis" unicode="&#xcb;" horiz-adv-x="594" 
d="M458 869q0 -26 -18.5 -44.5t-43.5 -18.5q-26 0 -44.5 18.5t-18.5 44.5t18.5 44.5t44.5 18.5t44 -18.5t18 -44.5zM276 869q0 -26 -18.5 -44.5t-44.5 -18.5q-25 0 -44 19t-19 44q0 26 18.5 44.5t44.5 18.5t44.5 -18.5t18.5 -44.5zM527 0h-447v733h447v-114h-322v-192h291
v-110h-291v-203h322v-114z" />
    <glyph glyph-name="Igrave" unicode="&#xcc;" horiz-adv-x="295" 
d="M210 0h-125v733h125v-733zM204 844l-33 -53l-204 91l53 97z" />
    <glyph glyph-name="Iacute" unicode="&#xcd;" horiz-adv-x="295" 
d="M210 0h-125v733h125v-733zM318 888l-202 -89l-29 55l182 134z" />
    <glyph glyph-name="Icircumflex" unicode="&#xce;" horiz-adv-x="295" 
d="M210 0h-125v733h125v-733zM316 805h-107l-65 84l-64 -84h-101l148 177h45z" />
    <glyph glyph-name="Idieresis" unicode="&#xcf;" horiz-adv-x="295" 
d="M210 0h-125v733h125v-733zM301 869q0 -26 -18.5 -44.5t-43.5 -18.5q-26 0 -44.5 18.5t-18.5 44.5t18.5 44.5t44.5 18.5t44 -18.5t18 -44.5zM119 869q0 -26 -18.5 -44.5t-44.5 -18.5t-44.5 19t-18.5 44q0 26 18.5 44.5t44.5 18.5t44.5 -18.5t18.5 -44.5z" />
    <glyph glyph-name="Eth" unicode="&#xd0;" horiz-adv-x="782" 
d="M737 373q0 -164 -109.5 -271.5t-316.5 -107.5q-84 0 -211 12v315h-81v104h81v301q106 12 204 12q208 0 320.5 -104t112.5 -261zM603 373q0 117 -73.5 186t-209.5 69q-56 0 -95 -6v-197h112v-104h-112v-210q37 -6 105 -6q136 0 204.5 73t68.5 195z" />
    <glyph glyph-name="Ntilde" unicode="&#xd1;" horiz-adv-x="758" 
d="M678 -11l-14 -3l-459 484v-470h-125v743l20 4l453 -477v463h125v-744zM551 859q-49 -59 -107 -59q-33 0 -66 19q-31 19 -57 19q-36 0 -68 -38l-40 64q48 59 107 59q33 0 66 -19q29 -18 55 -18q35 0 67 38z" />
    <glyph glyph-name="Ograve" unicode="&#xd2;" horiz-adv-x="851" 
d="M796 366q0 -162 -107.5 -270t-266.5 -108t-263 107.5t-104 270.5t107 271t267 108q159 0 263 -107.5t104 -271.5zM662 366q0 116 -66 191.5t-170 75.5t-170.5 -75.5t-66.5 -191.5q0 -115 66.5 -191t170.5 -76q103 0 169.5 76t66.5 191zM481 844l-33 -53l-204 91l53 97z
" />
    <glyph glyph-name="Oacute" unicode="&#xd3;" horiz-adv-x="851" 
d="M596 880l-202 -89l-29 55l182 134zM796 366q0 -162 -107.5 -270t-266.5 -108t-263 107.5t-104 270.5t107 271t267 108q159 0 263 -107.5t104 -271.5zM662 366q0 116 -66 191.5t-170 75.5t-170.5 -75.5t-66.5 -191.5q0 -115 66.5 -191t170.5 -76q103 0 169.5 76t66.5 191z
" />
    <glyph glyph-name="Ocircumflex" unicode="&#xd4;" horiz-adv-x="851" 
d="M594 805h-107l-65 84l-64 -84h-101l148 177h45zM796 366q0 -162 -107.5 -270t-266.5 -108t-263 107.5t-104 270.5t107 271t267 108q159 0 263 -107.5t104 -271.5zM662 366q0 116 -66 191.5t-170 75.5t-170.5 -75.5t-66.5 -191.5q0 -115 66.5 -191t170.5 -76
q103 0 169.5 76t66.5 191z" />
    <glyph glyph-name="Otilde" unicode="&#xd5;" horiz-adv-x="851" 
d="M796 366q0 -162 -107.5 -270t-266.5 -108t-263 107.5t-104 270.5t107 271t267 108q159 0 263 -107.5t104 -271.5zM662 366q0 116 -66 191.5t-170 75.5t-170.5 -75.5t-66.5 -191.5q0 -115 66.5 -191t170.5 -76q103 0 169.5 76t66.5 191zM598 866q-49 -59 -107 -59
q-33 0 -66 19q-31 19 -57 19q-36 0 -68 -38l-40 64q48 59 107 59q33 0 66 -19q29 -18 55 -18q35 0 67 38z" />
    <glyph glyph-name="Odieresis" unicode="&#xd6;" horiz-adv-x="851" 
d="M579 869q0 -26 -18.5 -44.5t-43.5 -18.5q-26 0 -44.5 18.5t-18.5 44.5t18.5 44.5t44.5 18.5t44 -18.5t18 -44.5zM397 869q0 -26 -18.5 -44.5t-44.5 -18.5t-44.5 19t-18.5 44q0 26 18.5 44.5t44.5 18.5t44.5 -18.5t18.5 -44.5zM796 366q0 -162 -107.5 -270t-266.5 -108
t-263 107.5t-104 270.5t107 271t267 108q159 0 263 -107.5t104 -271.5zM662 366q0 116 -66 191.5t-170 75.5t-170.5 -75.5t-66.5 -191.5q0 -115 66.5 -191t170.5 -76q103 0 169.5 76t66.5 191z" />
    <glyph glyph-name="multiply" unicode="&#xd7;" horiz-adv-x="449" 
d="M62 393l60 61l102 -105l103 105l61 -61l-104 -105l104 -105l-61 -60l-103 104l-102 -104l-60 60l103 105z" />
    <glyph glyph-name="Oslash" unicode="&#xd8;" horiz-adv-x="851" 
d="M796 366q0 -162 -107.5 -270t-266.5 -108q-134 0 -232 79l-73 -73l-68 69l76 74q-70 100 -70 229q0 163 107 271t267 108q135 0 232 -80l73 73l68 -67l-76 -75q70 -98 70 -230zM662 366q0 75 -33 136q-350 -349 -350 -350q63 -53 147 -53q103 0 169.5 76t66.5 191z
M572 580q-61 53 -146 53q-104 0 -170.5 -75.5t-66.5 -191.5q0 -75 33 -135z" />
    <glyph glyph-name="Ugrave" unicode="&#xd9;" horiz-adv-x="729" 
d="M658 281q0 -139 -79 -216t-216 -77q-138 0 -214.5 76t-76.5 217v452h125v-443q0 -93 43.5 -140.5t124.5 -47.5q80 0 124 48t44 140v443h125v-452zM421 837l-33 -53l-204 91l53 97z" />
    <glyph glyph-name="Uacute" unicode="&#xda;" horiz-adv-x="729" 
d="M536 873l-202 -89l-29 55l182 134zM658 281q0 -139 -79 -216t-216 -77q-138 0 -214.5 76t-76.5 217v452h125v-443q0 -93 43.5 -140.5t124.5 -47.5q80 0 124 48t44 140v443h125v-452z" />
    <glyph glyph-name="Ucircumflex" unicode="&#xdb;" horiz-adv-x="729" 
d="M534 798h-107l-65 84l-64 -84h-101l148 177h45zM658 281q0 -139 -79 -216t-216 -77q-138 0 -214.5 76t-76.5 217v452h125v-443q0 -93 43.5 -140.5t124.5 -47.5q80 0 124 48t44 140v443h125v-452z" />
    <glyph glyph-name="Udieresis" unicode="&#xdc;" horiz-adv-x="729" 
d="M519 862q0 -26 -18.5 -44.5t-43.5 -18.5q-26 0 -44.5 18.5t-18.5 44.5t18.5 44.5t44.5 18.5t44 -18.5t18 -44.5zM337 862q0 -26 -18.5 -44.5t-44.5 -18.5t-44.5 18.5t-18.5 44.5t18.5 44.5t44.5 18.5t44.5 -18.5t18.5 -44.5zM658 281q0 -139 -79 -216t-216 -77
q-138 0 -214.5 76t-76.5 217v452h125v-443q0 -93 43.5 -140.5t124.5 -47.5q80 0 124 48t44 140v443h125v-452z" />
    <glyph glyph-name="Yacute" unicode="&#xdd;" horiz-adv-x="671" 
d="M656 733l-258 -425v-308h-125v309l-258 424h143l180 -310l178 310h140zM506 873l-202 -89l-29 55l182 134z" />
    <glyph glyph-name="Thorn" unicode="&#xde;" horiz-adv-x="599" 
d="M570 370q0 -114 -77.5 -185t-214.5 -71q-1 0 -73 3v-117h-125v733h125v-117q15 2 61 2q145 0 224.5 -70t79.5 -178zM440 366q0 58 -40 97t-113 39q-43 0 -82 -6v-268q50 -4 70 -4q82 0 123.5 38.5t41.5 103.5z" />
    <glyph glyph-name="germandbls" unicode="&#xdf;" horiz-adv-x="541" 
d="M531 415l-137 -192q117 -33 117 -143q0 -84 -63 -129t-157 -45q-27 0 -60 5l11 92q23 -4 48 -4q109 0 109 79q0 32 -24.5 52t-75.5 20q-23 0 -36 -2l-7 14l113 171h-190v-333h-113v531q0 100 46.5 154.5t137.5 54.5q37 0 70 -9l-13 -96q-16 4 -42 4q-46 0 -66 -23.5
t-20 -84.5v-104h347z" />
    <glyph glyph-name="agrave" unicode="&#xe0;" 
d="M412 0h-108v41q-51 -49 -124 -49q-65 0 -107.5 36t-42.5 99q0 58 42.5 95.5t112.5 37.5q57 0 115 -27v18q0 95 -103 95q-47 0 -106 -18l-13 85q72 22 137 22q197 0 197 -188v-247zM300 107v53q-44 29 -88 29q-33 0 -54 -16.5t-21 -44.5q0 -29 20 -45.5t57 -16.5
q53 0 86 41zM293 532l-33 -53l-204 91l53 97z" />
    <glyph glyph-name="aacute" unicode="&#xe1;" 
d="M412 0h-108v41q-51 -49 -124 -49q-65 0 -107.5 36t-42.5 99q0 58 42.5 95.5t112.5 37.5q57 0 115 -27v18q0 95 -103 95q-47 0 -106 -18l-13 85q72 22 137 22q197 0 197 -188v-247zM300 107v53q-44 29 -88 29q-33 0 -54 -16.5t-21 -44.5q0 -29 20 -45.5t57 -16.5
q53 0 86 41zM407 568l-202 -89l-29 55l182 134z" />
    <glyph glyph-name="acircumflex" unicode="&#xe2;" 
d="M412 0h-108v41q-51 -49 -124 -49q-65 0 -107.5 36t-42.5 99q0 58 42.5 95.5t112.5 37.5q57 0 115 -27v18q0 95 -103 95q-47 0 -106 -18l-13 85q72 22 137 22q197 0 197 -188v-247zM300 107v53q-44 29 -88 29q-33 0 -54 -16.5t-21 -44.5q0 -29 20 -45.5t57 -16.5
q53 0 86 41zM405 493h-107l-65 84l-64 -84h-101l148 177h45z" />
    <glyph glyph-name="atilde" unicode="&#xe3;" 
d="M412 0h-108v41q-51 -49 -124 -49q-65 0 -107.5 36t-42.5 99q0 58 42.5 95.5t112.5 37.5q57 0 115 -27v18q0 95 -103 95q-47 0 -106 -18l-13 85q72 22 137 22q197 0 197 -188v-247zM300 107v53q-44 29 -88 29q-33 0 -54 -16.5t-21 -44.5q0 -29 20 -45.5t57 -16.5
q53 0 86 41zM409 554q-49 -59 -107 -59q-33 0 -66 19q-31 19 -57 19q-36 0 -68 -38l-40 64q48 59 107 59q33 0 66 -19q29 -18 55 -18q35 0 67 38z" />
    <glyph glyph-name="adieresis" unicode="&#xe4;" 
d="M412 0h-108v41q-51 -49 -124 -49q-65 0 -107.5 36t-42.5 99q0 58 42.5 95.5t112.5 37.5q57 0 115 -27v18q0 95 -103 95q-47 0 -106 -18l-13 85q72 22 137 22q197 0 197 -188v-247zM300 107v53q-44 29 -88 29q-33 0 -54 -16.5t-21 -44.5q0 -29 20 -45.5t57 -16.5
q53 0 86 41zM390 557q0 -26 -18.5 -44.5t-43.5 -18.5q-26 0 -44.5 18.5t-18.5 44.5t18.5 44.5t44.5 18.5t44 -18.5t18 -44.5zM208 557q0 -26 -18.5 -44.5t-44.5 -18.5q-25 0 -44 19t-19 44q0 26 18.5 44.5t44.5 18.5t44.5 -18.5t18.5 -44.5z" />
    <glyph glyph-name="aring" unicode="&#xe5;" 
d="M412 0h-108v41q-51 -49 -124 -49q-65 0 -107.5 36t-42.5 99q0 58 42.5 95.5t112.5 37.5q57 0 115 -27v18q0 95 -103 95q-47 0 -106 -18l-13 85q72 22 137 22q197 0 197 -188v-247zM300 107v53q-44 29 -88 29q-33 0 -54 -16.5t-21 -44.5q0 -29 20 -45.5t57 -16.5
q53 0 86 41zM354 601q0 -48 -33 -81t-85 -33t-85 33t-33 81q0 47 33 80.5t85 33.5t85 -33.5t33 -80.5zM286 601q0 25 -14.5 41t-35.5 16t-35.5 -16t-14.5 -41t14.5 -41t35.5 -16t35.5 16t14.5 41z" />
    <glyph glyph-name="ae" unicode="&#xe6;" horiz-adv-x="740" 
d="M301 232v19q0 95 -104 95q-45 0 -106 -18l-13 85q72 22 135 22q114 0 157 -68q58 68 149 68t141.5 -58t50.5 -147q0 -28 -3 -51h-296q15 -98 134 -98q49 0 123 23l14 -88q-87 -24 -146 -24q-120 0 -182 82q-68 -82 -168 -82q-69 0 -113 36t-44 99q0 58 42.5 95.5
t111.5 37.5q61 0 117 -28zM610 250q-3 44 -28 70t-68 26q-86 0 -99 -96h195zM314 145q-37 47 -104 47q-32 0 -52.5 -16.5t-20.5 -45.5t20.5 -45t56.5 -16q31 0 59 19t41 57z" />
    <glyph glyph-name="ccedilla" unicode="&#xe7;" horiz-adv-x="432" 
d="M365 -147q0 -43 -30 -72.5t-84 -29.5q-56 0 -120 38l28 61q53 -33 95 -33q36 0 36 34q0 42 -96 45l-4 9l24 94q-83 17 -130.5 75.5t-47.5 137.5q0 94 65.5 158.5t175.5 64.5q75 0 143 -43l-37 -79q-55 30 -108 30q-56 0 -91.5 -34t-35.5 -96q0 -58 38.5 -93t94.5 -35
q55 0 107 30l32 -80q-68 -43 -143 -43h-10l-9 -38q107 -25 107 -101z" />
    <glyph glyph-name="egrave" unicode="&#xe8;" horiz-adv-x="476" 
d="M447 230q0 -36 -3 -51h-296q15 -98 133 -98q50 0 124 23l14 -88q-89 -24 -149 -24q-115 0 -174.5 62t-59.5 158q0 92 58 157.5t158 65.5q93 0 144 -58t51 -147zM150 250h196q-4 44 -29 70t-67 26t-68 -25t-32 -71zM307 532l-33 -53l-204 91l53 97z" />
    <glyph glyph-name="eacute" unicode="&#xe9;" horiz-adv-x="476" 
d="M421 568l-202 -89l-29 55l182 134zM447 230q0 -36 -3 -51h-296q15 -98 133 -98q50 0 124 23l14 -88q-89 -24 -149 -24q-115 0 -174.5 62t-59.5 158q0 92 58 157.5t158 65.5q93 0 144 -58t51 -147zM150 250h196q-4 44 -29 70t-67 26t-68 -25t-32 -71z" />
    <glyph glyph-name="ecircumflex" unicode="&#xea;" horiz-adv-x="476" 
d="M419 493h-107l-65 84l-64 -84h-101l148 177h45zM447 230q0 -36 -3 -51h-296q15 -98 133 -98q50 0 124 23l14 -88q-89 -24 -149 -24q-115 0 -174.5 62t-59.5 158q0 92 58 157.5t158 65.5q93 0 144 -58t51 -147zM150 250h196q-4 44 -29 70t-67 26t-68 -25t-32 -71z" />
    <glyph glyph-name="edieresis" unicode="&#xeb;" horiz-adv-x="476" 
d="M404 557q0 -26 -18.5 -44.5t-43.5 -18.5q-26 0 -44.5 18.5t-18.5 44.5t18.5 44.5t44.5 18.5t44 -18.5t18 -44.5zM222 557q0 -26 -18.5 -44.5t-44.5 -18.5q-25 0 -44 19t-19 44q0 26 18.5 44.5t44.5 18.5t44.5 -18.5t18.5 -44.5zM447 230q0 -36 -3 -51h-296
q15 -98 133 -98q50 0 124 23l14 -88q-89 -24 -149 -24q-115 0 -174.5 62t-59.5 158q0 92 58 157.5t158 65.5q93 0 144 -58t51 -147zM150 250h196q-4 44 -29 70t-67 26t-68 -25t-32 -71z" />
    <glyph glyph-name="igrave" unicode="&#xec;" horiz-adv-x="240" 
d="M178 0h-114v427h114v-427zM177 532l-33 -53l-204 91l53 97z" />
    <glyph glyph-name="iacute" unicode="&#xed;" horiz-adv-x="240" 
d="M291 568l-202 -89l-29 55l182 134zM178 0h-114v427h114v-427z" />
    <glyph glyph-name="icircumflex" unicode="&#xee;" horiz-adv-x="240" 
d="M289 493h-107l-65 84l-64 -84h-101l148 177h45zM178 0h-114v427h114v-427z" />
    <glyph glyph-name="idieresis" unicode="&#xef;" horiz-adv-x="240" 
d="M274 557q0 -26 -18.5 -44.5t-43.5 -18.5q-26 0 -44.5 18.5t-18.5 44.5t18.5 44.5t44.5 18.5t44 -18.5t18 -44.5zM92 557q0 -26 -18.5 -44.5t-44.5 -18.5q-25 0 -44 19t-19 44q0 26 18.5 44.5t44.5 18.5t44.5 -18.5t18.5 -44.5zM178 0h-114v427h114v-427z" />
    <glyph glyph-name="eth" unicode="&#xf0;" horiz-adv-x="524" 
d="M157 486l-48 59l63 55q-51 34 -98 52l44 88q75 -34 130 -72l67 59l51 -62l-54 -46q173 -154 173 -377q0 -113 -60.5 -182.5t-162.5 -69.5q-107 0 -165 66.5t-58 163.5q0 92 53 153.5t143 61.5q74 0 121 -45q-33 86 -121 163zM377 215q0 60 -32 97t-84 37q-49 0 -79.5 -35
t-30.5 -95t30.5 -100.5t82.5 -40.5q53 0 83 38t30 99z" />
    <glyph glyph-name="ntilde" unicode="&#xf1;" horiz-adv-x="512" 
d="M463 0h-114v264q0 40 -15.5 58.5t-49.5 18.5q-58 0 -113 -60v-281h-114v427h110v-71q77 79 158 79q68 0 103 -38.5t35 -104.5v-292zM432 554q-49 -59 -107 -59q-33 0 -66 19q-31 19 -57 19q-36 0 -68 -38l-40 64q48 59 107 59q33 0 66 -19q29 -18 55 -18q35 0 67 38z" />
    <glyph glyph-name="ograve" unicode="&#xf2;" horiz-adv-x="523" 
d="M482 214q0 -94 -61 -158t-161 -64q-101 0 -162.5 64t-61.5 158q0 93 61.5 157t162.5 64q100 0 161 -63.5t61 -157.5zM370 214q0 61 -30 97.5t-80 36.5q-51 0 -81 -36t-30 -98t30 -98.5t81 -36.5q50 0 80 36.5t30 98.5zM318 532l-33 -53l-204 91l53 97z" />
    <glyph glyph-name="oacute" unicode="&#xf3;" horiz-adv-x="523" 
d="M432 568l-202 -89l-29 55l182 134zM482 214q0 -94 -61 -158t-161 -64q-101 0 -162.5 64t-61.5 158q0 93 61.5 157t162.5 64q100 0 161 -63.5t61 -157.5zM370 214q0 61 -30 97.5t-80 36.5q-51 0 -81 -36t-30 -98t30 -98.5t81 -36.5q50 0 80 36.5t30 98.5z" />
    <glyph glyph-name="ocircumflex" unicode="&#xf4;" horiz-adv-x="523" 
d="M430 493h-107l-65 84l-64 -84h-101l148 177h45zM482 214q0 -94 -61 -158t-161 -64q-101 0 -162.5 64t-61.5 158q0 93 61.5 157t162.5 64q100 0 161 -63.5t61 -157.5zM370 214q0 61 -30 97.5t-80 36.5q-51 0 -81 -36t-30 -98t30 -98.5t81 -36.5q50 0 80 36.5t30 98.5z" />
    <glyph glyph-name="otilde" unicode="&#xf5;" horiz-adv-x="523" 
d="M482 214q0 -94 -61 -158t-161 -64q-101 0 -162.5 64t-61.5 158q0 93 61.5 157t162.5 64q100 0 161 -63.5t61 -157.5zM370 214q0 61 -30 97.5t-80 36.5q-51 0 -81 -36t-30 -98t30 -98.5t81 -36.5q50 0 80 36.5t30 98.5zM434 554q-49 -59 -107 -59q-33 0 -66 19
q-31 19 -57 19q-36 0 -68 -38l-40 64q48 59 107 59q33 0 66 -19q29 -18 55 -18q35 0 67 38z" />
    <glyph glyph-name="odieresis" unicode="&#xf6;" horiz-adv-x="523" 
d="M415 557q0 -26 -18.5 -44.5t-43.5 -18.5q-26 0 -44.5 18.5t-18.5 44.5t18.5 44.5t44.5 18.5t44 -18.5t18 -44.5zM233 557q0 -26 -18.5 -44.5t-44.5 -18.5t-44.5 19t-18.5 44q0 26 18.5 44.5t44.5 18.5t44.5 -18.5t18.5 -44.5zM482 214q0 -94 -61 -158t-161 -64
q-101 0 -162.5 64t-61.5 158q0 93 61.5 157t162.5 64q100 0 161 -63.5t61 -157.5zM370 214q0 61 -30 97.5t-80 36.5q-51 0 -81 -36t-30 -98t30 -98.5t81 -36.5q50 0 80 36.5t30 98.5z" />
    <glyph glyph-name="divide" unicode="&#xf7;" 
d="M60 246v84h339v-84h-339zM172 429q0 24 17 41t41 17t40.5 -17t16.5 -41q0 -23 -16.5 -40t-40.5 -17t-41 17t-17 40zM172 147q0 24 17 41t41 17t40.5 -17t16.5 -41t-16.5 -41t-40.5 -17t-41 17t-17 41z" />
    <glyph glyph-name="oslash" unicode="&#xf8;" horiz-adv-x="518" 
d="M488 394l-48 -46q42 -56 42 -134q0 -94 -61 -158t-161 -64q-83 0 -143 46l-48 -46l-39 39l49 47q-43 58 -43 136q0 94 61.5 157.5t162.5 63.5q87 0 143 -48l47 46zM158 153l175 167q-28 28 -73 28q-52 0 -82 -35.5t-30 -98.5q0 -35 10 -61zM361 272l-174 -167
q29 -26 73 -26q51 0 80.5 36t29.5 99q0 32 -9 58z" />
    <glyph glyph-name="ugrave" unicode="&#xf9;" horiz-adv-x="511" 
d="M459 0h-110v66q-74 -74 -155 -74q-69 0 -105 39t-36 104v292h114v-264q0 -76 68 -76q59 0 110 56v284h114v-427zM312 532l-33 -53l-204 91l53 97z" />
    <glyph glyph-name="uacute" unicode="&#xfa;" horiz-adv-x="511" 
d="M426 568l-202 -89l-29 55l182 134zM459 0h-110v66q-74 -74 -155 -74q-69 0 -105 39t-36 104v292h114v-264q0 -76 68 -76q59 0 110 56v284h114v-427z" />
    <glyph glyph-name="ucircumflex" unicode="&#xfb;" horiz-adv-x="511" 
d="M424 493h-107l-65 84l-64 -84h-101l148 177h45zM459 0h-110v66q-74 -74 -155 -74q-69 0 -105 39t-36 104v292h114v-264q0 -76 68 -76q59 0 110 56v284h114v-427z" />
    <glyph glyph-name="udieresis" unicode="&#xfc;" horiz-adv-x="511" 
d="M409 557q0 -26 -18.5 -44.5t-43.5 -18.5q-26 0 -44.5 18.5t-18.5 44.5t18.5 44.5t44.5 18.5t44 -18.5t18 -44.5zM227 557q0 -26 -18.5 -44.5t-44.5 -18.5t-44.5 19t-18.5 44q0 26 18.5 44.5t44.5 18.5t44.5 -18.5t18.5 -44.5zM459 0h-110v66q-74 -74 -155 -74
q-69 0 -105 39t-36 104v292h114v-264q0 -76 68 -76q59 0 110 56v284h114v-427z" />
    <glyph glyph-name="yacute" unicode="&#xfd;" horiz-adv-x="461" 
d="M463 427l-302 -643h-113l130 259l-180 384h126l109 -271l107 271h123zM401 568l-202 -89l-29 55l182 134z" />
    <glyph glyph-name="thorn" unicode="&#xfe;" horiz-adv-x="534" 
d="M495 217q0 -94 -60.5 -159.5t-152.5 -65.5q-61 0 -111 28v-236h-114v949h112v-345q55 47 132 47q84 0 139 -61.5t55 -156.5zM382 216q0 57 -29.5 93t-79.5 36q-61 0 -103 -45v-179q34 -39 99 -39q49 0 81 36t32 98z" />
    <glyph glyph-name="ydieresis" unicode="&#xff;" horiz-adv-x="461" 
d="M463 427l-302 -643h-113l130 259l-180 384h126l109 -271l107 271h123zM384 557q0 -26 -18.5 -44.5t-43.5 -18.5q-26 0 -44.5 18.5t-18.5 44.5t18.5 44.5t44.5 18.5t44 -18.5t18 -44.5zM202 557q0 -26 -18.5 -44.5t-44.5 -18.5q-25 0 -44 19t-19 44q0 26 18.5 44.5
t44.5 18.5t44.5 -18.5t18.5 -44.5z" />
    <glyph glyph-name="Amacron" unicode="&#x100;" horiz-adv-x="687" 
d="M690 0h-132l-71 168h-290l-71 -168h-129l338 743h18zM446 267l-104 245l-104 -245h208zM487 816h-287v86h287v-86z" />
    <glyph glyph-name="amacron" unicode="&#x101;" 
d="M412 0h-108v41q-51 -49 -124 -49q-65 0 -107.5 36t-42.5 99q0 58 42.5 95.5t112.5 37.5q57 0 115 -27v18q0 95 -103 95q-47 0 -106 -18l-13 85q72 22 137 22q197 0 197 -188v-247zM300 107v53q-44 29 -88 29q-33 0 -54 -16.5t-21 -44.5q0 -29 20 -45.5t57 -16.5
q53 0 86 41zM380 504h-287v86h287v-86z" />
    <glyph glyph-name="Abreve" unicode="&#x102;" horiz-adv-x="687" 
d="M690 0h-132l-71 168h-290l-71 -168h-129l338 743h18zM446 267l-104 245l-104 -245h208zM486 938q0 -58 -39 -98t-104 -40t-103.5 40t-38.5 98l88 7q0 -33 14 -51t40 -18q55 0 55 69z" />
    <glyph glyph-name="abreve" unicode="&#x103;" 
d="M412 0h-108v41q-51 -49 -124 -49q-65 0 -107.5 36t-42.5 99q0 58 42.5 95.5t112.5 37.5q57 0 115 -27v18q0 95 -103 95q-47 0 -106 -18l-13 85q72 22 137 22q197 0 197 -188v-247zM300 107v53q-44 29 -88 29q-33 0 -54 -16.5t-21 -44.5q0 -29 20 -45.5t57 -16.5
q53 0 86 41zM379 626q0 -58 -39 -98t-104 -40t-103.5 40t-38.5 98l88 7q0 -33 14 -51t40 -18q55 0 55 69z" />
    <glyph glyph-name="Aogonek" unicode="&#x104;" horiz-adv-x="687" 
d="M693 -173q-43 -48 -103 -49q-42 0 -66.5 24.5t-23.5 63.5q0 32 17 62.5t55 71.5h-14l-71 168h-290l-71 -168h-129l338 743h18l337 -743h-48q-61 -76 -61 -116q0 -36 33 -36q23 0 47 24zM446 267l-104 245l-104 -245h208z" />
    <glyph glyph-name="aogonek" unicode="&#x105;" 
d="M428 -168q-43 -48 -103 -49q-42 0 -66.5 24.5t-23.5 63.5q0 56 69 131v39q-51 -49 -124 -49q-65 0 -107.5 36t-42.5 99q0 58 42.5 95.5t112.5 37.5q57 0 115 -27v18q0 95 -103 95q-47 0 -106 -18l-13 85q72 22 137 22q197 0 197 -188v-247h-39q-57 -70 -57 -111
q0 -36 33 -36q23 0 47 24zM300 107v53q-44 29 -88 29q-33 0 -54 -16.5t-21 -44.5q0 -29 20 -45.5t57 -16.5q53 0 86 41z" />
    <glyph glyph-name="Cacute" unicode="&#x106;" horiz-adv-x="719" 
d="M594 880l-202 -89l-29 55l182 134zM689 57q-108 -69 -239 -69q-173 0 -284 107t-111 271q0 163 111.5 271t283.5 108q127 0 236 -67l-43 -106q-98 56 -195 56q-119 0 -189 -72t-70 -190q0 -117 71 -189t191 -72q102 0 200 58z" />
    <glyph glyph-name="cacute" unicode="&#x107;" horiz-adv-x="432" 
d="M423 568l-202 -89l-29 55l182 134zM420 35q-68 -43 -143 -43q-110 0 -175.5 63t-65.5 157t65.5 158.5t175.5 64.5q75 0 143 -43l-37 -79q-55 30 -108 30q-56 0 -91.5 -34t-35.5 -96q0 -58 38.5 -93t94.5 -35q55 0 107 30z" />
    <glyph glyph-name="Cdotaccent" unicode="&#x10a;" horiz-adv-x="719" 
d="M689 57q-108 -69 -239 -69q-173 0 -284 107t-111 271q0 163 111.5 271t283.5 108q127 0 236 -67l-43 -106q-98 56 -195 56q-119 0 -189 -72t-70 -190q0 -117 71 -189t191 -72q102 0 200 58zM361 869q0 26 18 44.5t44 18.5t44.5 -18.5t18.5 -44.5t-18.5 -44.5t-44.5 -18.5
q-25 0 -43.5 18.5t-18.5 44.5z" />
    <glyph glyph-name="cdotaccent" unicode="&#x10b;" horiz-adv-x="432" 
d="M420 35q-68 -43 -143 -43q-110 0 -175.5 63t-65.5 157t65.5 158.5t175.5 64.5q75 0 143 -43l-37 -79q-55 30 -108 30q-56 0 -91.5 -34t-35.5 -96q0 -58 38.5 -93t94.5 -35q55 0 107 30zM190 557q0 26 18 44.5t44 18.5t44.5 -18.5t18.5 -44.5t-18.5 -44.5t-44.5 -18.5
q-25 0 -43.5 18.5t-18.5 44.5z" />
    <glyph glyph-name="Ccaron" unicode="&#x10c;" horiz-adv-x="719" 
d="M592 976l-149 -178h-44l-144 178h106l65 -85l64 85h102zM689 57q-108 -69 -239 -69q-173 0 -284 107t-111 271q0 163 111.5 271t283.5 108q127 0 236 -67l-43 -106q-98 56 -195 56q-119 0 -189 -72t-70 -190q0 -117 71 -189t191 -72q102 0 200 58z" />
    <glyph glyph-name="ccaron" unicode="&#x10d;" horiz-adv-x="432" 
d="M421 664l-149 -178h-44l-144 178h106l65 -85l64 85h102zM420 35q-68 -43 -143 -43q-110 0 -175.5 63t-65.5 157t65.5 158.5t175.5 64.5q75 0 143 -43l-37 -79q-55 30 -108 30q-56 0 -91.5 -34t-35.5 -96q0 -58 38.5 -93t94.5 -35q55 0 107 30z" />
    <glyph glyph-name="Dcaron" unicode="&#x10e;" horiz-adv-x="772" 
d="M536 976l-149 -178h-44l-144 178h106l65 -85l64 85h102zM717 373q0 -164 -109.5 -271.5t-316.5 -107.5q-84 0 -211 12v720q107 12 204 12q208 0 320.5 -104t112.5 -261zM583 373q0 117 -73.5 186t-210.5 69q-55 0 -94 -6v-511q37 -6 105 -6q136 0 204.5 73t68.5 195z" />
    <glyph glyph-name="dcaron" unicode="&#x10f;" horiz-adv-x="531" 
d="M567 733l90 -17q0 -121 -97 -193l-51 33q54 64 58 177zM477 0h-109v40q-51 -48 -128 -48q-89 0 -145 62t-56 158q0 92 61.5 157.5t145.5 65.5q70 0 118 -38v336h113v-733zM364 131v164q-39 50 -100 50q-49 0 -80.5 -35t-31.5 -96q0 -60 30 -95.5t84 -35.5q59 0 98 48z
" />
    <glyph glyph-name="Dcroat" unicode="&#x110;" horiz-adv-x="782" 
d="M737 373q0 -164 -109.5 -271.5t-316.5 -107.5q-84 0 -211 12v315h-81v104h81v301q106 12 204 12q208 0 320.5 -104t112.5 -261zM603 373q0 117 -73.5 186t-209.5 69q-56 0 -95 -6v-197h112v-104h-112v-210q37 -6 105 -6q136 0 204.5 73t68.5 195z" />
    <glyph glyph-name="dcroat" unicode="&#x111;" horiz-adv-x="531" 
d="M477 0h-109v40q-51 -48 -128 -48q-89 0 -145 62t-56 158q0 92 61.5 157.5t145.5 65.5q70 0 118 -38v151h-142v85h142v100h113v-100h54v-85h-54v-548zM364 131v164q-39 50 -100 50q-49 0 -80.5 -35t-31.5 -96q0 -60 30 -95.5t84 -35.5q59 0 98 48z" />
    <glyph glyph-name="Emacron" unicode="&#x112;" horiz-adv-x="594" 
d="M527 0h-447v733h447v-114h-322v-192h291v-110h-291v-203h322v-114zM448 816h-287v86h287v-86z" />
    <glyph glyph-name="emacron" unicode="&#x113;" horiz-adv-x="476" 
d="M447 230q0 -36 -3 -51h-296q15 -98 133 -98q50 0 124 23l14 -88q-89 -24 -149 -24q-115 0 -174.5 62t-59.5 158q0 92 58 157.5t158 65.5q93 0 144 -58t51 -147zM150 250h196q-4 44 -29 70t-67 26t-68 -25t-32 -71zM394 504h-287v86h287v-86z" />
    <glyph glyph-name="Ebreve" unicode="&#x114;" horiz-adv-x="594" 
d="M527 0h-447v733h447v-114h-322v-192h291v-110h-291v-203h322v-114zM447 938q0 -58 -39 -98t-104 -40t-103.5 40t-38.5 98l88 7q0 -33 14 -51t40 -18q55 0 55 69z" />
    <glyph glyph-name="ebreve" unicode="&#x115;" horiz-adv-x="476" 
d="M447 230q0 -36 -3 -51h-296q15 -98 133 -98q50 0 124 23l14 -88q-89 -24 -149 -24q-115 0 -174.5 62t-59.5 158q0 92 58 157.5t158 65.5q93 0 144 -58t51 -147zM150 250h196q-4 44 -29 70t-67 26t-68 -25t-32 -71zM393 626q0 -58 -39 -98t-104 -40t-103.5 40t-38.5 98
l88 7q0 -33 14 -51t40 -18q55 0 55 69z" />
    <glyph glyph-name="Edotaccent" unicode="&#x116;" horiz-adv-x="594" 
d="M527 0h-447v733h447v-114h-322v-192h291v-110h-291v-203h322v-114zM242 869q0 26 18 44.5t44 18.5t44.5 -18.5t18.5 -44.5t-18.5 -44.5t-44.5 -18.5q-25 0 -43.5 18.5t-18.5 44.5z" />
    <glyph glyph-name="edotaccent" unicode="&#x117;" horiz-adv-x="476" 
d="M447 230q0 -36 -3 -51h-296q15 -98 133 -98q50 0 124 23l14 -88q-89 -24 -149 -24q-115 0 -174.5 62t-59.5 158q0 92 58 157.5t158 65.5q93 0 144 -58t51 -147zM150 250h196q-4 44 -29 70t-67 26t-68 -25t-32 -71zM188 557q0 26 18 44.5t44 18.5t44.5 -18.5t18.5 -44.5
t-18.5 -44.5t-44.5 -18.5q-25 0 -43.5 18.5t-18.5 44.5z" />
    <glyph glyph-name="Eogonek" unicode="&#x118;" horiz-adv-x="594" 
d="M527 0h-40q-61 -76 -61 -116q0 -36 33 -36q23 0 47 24l32 -45q-43 -48 -103 -49q-42 0 -66.5 24.5t-23.5 63.5q0 32 17 62.5t55 71.5h-337v733h447v-114h-322v-192h291v-110h-291v-203h322v-114z" />
    <glyph glyph-name="eogonek" unicode="&#x119;" horiz-adv-x="476" 
d="M447 230q0 -36 -3 -51h-296q15 -98 133 -98q50 0 124 23l14 -86q-84 -76 -84 -134q0 -36 33 -36q22 0 46 24l33 -45q-44 -48 -104 -49q-41 0 -65.5 24.5t-24.5 63.5q0 60 73 131q-33 -5 -56 -5q-115 0 -174.5 62t-59.5 158q0 92 58 157.5t158 65.5q93 0 144 -58t51 -147z
M150 250h196q-4 44 -29 70t-67 26t-68 -25t-32 -71z" />
    <glyph glyph-name="Ecaron" unicode="&#x11a;" horiz-adv-x="594" 
d="M473 976l-149 -178h-44l-144 178h106l65 -85l64 85h102zM527 0h-447v733h447v-114h-322v-192h291v-110h-291v-203h322v-114z" />
    <glyph glyph-name="ecaron" unicode="&#x11b;" horiz-adv-x="476" 
d="M419 664l-149 -178h-44l-144 178h106l65 -85l64 85h102zM447 230q0 -36 -3 -51h-296q15 -98 133 -98q50 0 124 23l14 -88q-89 -24 -149 -24q-115 0 -174.5 62t-59.5 158q0 92 58 157.5t158 65.5q93 0 144 -58t51 -147zM150 250h196q-4 44 -29 70t-67 26t-68 -25t-32 -71z
" />
    <glyph glyph-name="Gbreve" unicode="&#x11e;" horiz-adv-x="775" 
d="M426 388h291v-320q-122 -80 -273 -80q-105 0 -193.5 46.5t-142 134t-53.5 197.5q0 166 114.5 272.5t274.5 106.5q136 0 260 -76l-57 -100q-95 61 -197 61q-121 0 -191 -75t-70 -189q0 -116 75 -191.5t185 -75.5q85 0 148 35v144h-171v110zM575 938q0 -58 -39 -98
t-104 -40t-103.5 40t-38.5 98l88 7q0 -33 14 -51t40 -18q55 0 55 69z" />
    <glyph glyph-name="gbreve" unicode="&#x11f;" horiz-adv-x="529" 
d="M477 -22q0 -108 -50.5 -155t-148.5 -47q-68 0 -142 21l11 100q58 -20 113 -20q54 0 79 23t25 76v52q-46 -36 -115 -36q-92 0 -151 58.5t-59 157.5q0 94 62 160.5t147 66.5q71 0 120 -39v31h109v-449zM364 124v177q-39 43 -96 43q-52 0 -84 -37.5t-32 -99.5
q0 -56 31.5 -91t87.5 -35t93 43zM420 626q0 -58 -39 -98t-104 -40t-103.5 40t-38.5 98l88 7q0 -33 14 -51t40 -18q55 0 55 69z" />
    <glyph glyph-name="Gdotaccent" unicode="&#x120;" horiz-adv-x="775" 
d="M426 388h291v-320q-122 -80 -273 -80q-105 0 -193.5 46.5t-142 134t-53.5 197.5q0 166 114.5 272.5t274.5 106.5q136 0 260 -76l-57 -100q-95 61 -197 61q-121 0 -191 -75t-70 -189q0 -116 75 -191.5t185 -75.5q85 0 148 35v144h-171v110zM370 869q0 26 18 44.5t44 18.5
t44.5 -18.5t18.5 -44.5t-18.5 -44.5t-44.5 -18.5q-25 0 -43.5 18.5t-18.5 44.5z" />
    <glyph glyph-name="gdotaccent" unicode="&#x121;" horiz-adv-x="529" 
d="M477 -22q0 -108 -50.5 -155t-148.5 -47q-68 0 -142 21l11 100q58 -20 113 -20q54 0 79 23t25 76v52q-46 -36 -115 -36q-92 0 -151 58.5t-59 157.5q0 94 62 160.5t147 66.5q71 0 120 -39v31h109v-449zM364 124v177q-39 43 -96 43q-52 0 -84 -37.5t-32 -99.5
q0 -56 31.5 -91t87.5 -35t93 43zM215 557q0 26 18 44.5t44 18.5t44.5 -18.5t18.5 -44.5t-18.5 -44.5t-44.5 -18.5q-25 0 -43.5 18.5t-18.5 44.5z" />
    <glyph glyph-name="Gcommaaccent" unicode="&#x122;" horiz-adv-x="775" 
d="M498 -151q0 -46 -33.5 -95.5t-87.5 -76.5l-12 19q53 45 69 104q-30 1 -48 19.5t-18 45.5q0 26 18 44t43 18q32 0 50.5 -22.5t18.5 -55.5zM426 388h291v-320q-122 -80 -273 -80q-105 0 -193.5 46.5t-142 134t-53.5 197.5q0 166 114.5 272.5t274.5 106.5q136 0 260 -76
l-57 -100q-95 61 -197 61q-121 0 -191 -75t-70 -189q0 -116 75 -191.5t185 -75.5q85 0 148 35v144h-171v110z" />
    <glyph glyph-name="gcommaaccent" unicode="&#x123;" horiz-adv-x="529" 
d="M212 584q0 46 33.5 95.5t87.5 76.5l12 -19q-53 -45 -69 -104q30 -1 48 -19.5t18 -45.5q0 -26 -18 -44t-43 -18q-32 0 -50.5 22.5t-18.5 55.5zM477 -22q0 -108 -50.5 -155t-148.5 -47q-68 0 -142 21l11 100q58 -20 113 -20q54 0 79 23t25 76v52q-46 -36 -115 -36
q-92 0 -151 58.5t-59 157.5q0 94 62 160.5t147 66.5q71 0 120 -39v31h109v-449zM364 124v177q-39 43 -96 43q-52 0 -84 -37.5t-32 -99.5q0 -56 31.5 -91t87.5 -35t93 43z" />
    <glyph glyph-name="Hbar" unicode="&#x126;" horiz-adv-x="747" 
d="M667 0h-125v305h-337v-305h-125v534h-72v86h72v113h125v-113h337v113h125v-113h73v-86h-73v-534zM205 417h337v117h-337v-117z" />
    <glyph glyph-name="hbar" unicode="&#x127;" horiz-adv-x="515" 
d="M466 0h-114v264q0 77 -67 77q-59 0 -114 -60v-281h-114v548h-54v85h54v100h113v-100h142v-85h-142v-190q73 77 155 77q69 0 105 -39t36 -104v-292z" />
    <glyph glyph-name="Imacron" unicode="&#x12a;" horiz-adv-x="295" 
d="M210 0h-125v733h125v-733zM291 816h-287v86h287v-86z" />
    <glyph glyph-name="imacron" unicode="&#x12b;" horiz-adv-x="240" 
d="M178 0h-114v427h114v-427zM264 504h-287v86h287v-86z" />
    <glyph glyph-name="Ibreve" unicode="&#x12c;" horiz-adv-x="295" 
d="M210 0h-125v733h125v-733zM290 938q0 -58 -39 -98t-104 -40t-103.5 40t-38.5 98l88 7q0 -33 14 -51t40 -18q55 0 55 69z" />
    <glyph glyph-name="ibreve" unicode="&#x12d;" horiz-adv-x="240" 
d="M178 0h-114v427h114v-427zM263 626q0 -58 -39 -98t-104 -40t-103.5 40t-38.5 98l88 7q0 -33 14 -51t40 -18q55 0 55 69z" />
    <glyph glyph-name="Iogonek" unicode="&#x12e;" horiz-adv-x="295" 
d="M236 -173q-43 -48 -103 -49q-42 0 -66.5 24.5t-23.5 63.5q0 32 17 62.5t55 71.5h-30v733h125v-733h-25q-61 -76 -61 -116q0 -36 33 -36q23 0 47 24z" />
    <glyph glyph-name="iogonek" unicode="&#x12f;" horiz-adv-x="236" 
d="M211 -168q-44 -48 -104 -49q-41 0 -65.5 24.5t-24.5 63.5q1 56 67 129h-22v427h114v-427h-20q-57 -69 -57 -111q0 -36 33 -36q22 0 46 24zM186 575q0 -28 -19.5 -47.5t-47.5 -19.5t-47 19.5t-19 47.5t19 47.5t47 19.5t47.5 -19.5t19.5 -47.5z" />
    <glyph glyph-name="Idotaccent" unicode="&#x130;" horiz-adv-x="295" 
d="M210 0h-125v733h125v-733zM85 869q0 26 18 44.5t44 18.5t44.5 -18.5t18.5 -44.5t-18.5 -44.5t-44.5 -18.5q-25 0 -43.5 18.5t-18.5 44.5z" />
    <glyph glyph-name="dotlessi" unicode="&#x131;" horiz-adv-x="241" 
d="M178 0h-114v427h114v-427z" />
    <glyph glyph-name="Kcommaaccent" unicode="&#x136;" horiz-adv-x="672" 
d="M410 -139q0 -46 -33.5 -95.5t-87.5 -76.5l-12 19q53 45 69 104q-30 1 -48 19.5t-18 45.5q0 26 18 44t43 18q32 0 50.5 -22.5t18.5 -55.5zM660 0h-155l-300 352v-352h-125v733h125v-330l288 330h151l-320 -352z" />
    <glyph glyph-name="kcommaaccent" unicode="&#x137;" horiz-adv-x="476" 
d="M315 -151q0 -46 -33.5 -95.5t-87.5 -76.5l-12 19q53 45 69 104q-30 1 -48 19.5t-18 45.5q0 26 18 44t43 18q32 0 50.5 -22.5t18.5 -55.5zM472 0h-136l-166 202v-202h-113v733h113v-489l158 183h136l-189 -201z" />
    <glyph glyph-name="Lacute" unicode="&#x139;" horiz-adv-x="545" 
d="M360 888l-202 -89l-29 55l182 134zM527 0h-447v733h125v-619h322v-114z" />
    <glyph glyph-name="lacute" unicode="&#x13a;" horiz-adv-x="231" 
d="M303 883l-202 -89l-29 55l182 134zM172 0h-113v733h113v-733z" />
    <glyph glyph-name="Lcommaaccent" unicode="&#x13b;" horiz-adv-x="545" 
d="M364 -151q0 -46 -33.5 -95.5t-87.5 -76.5l-12 19q53 45 69 104q-30 1 -48 19.5t-18 45.5q0 26 18 44t43 18q32 0 50.5 -22.5t18.5 -55.5zM527 0h-447v733h125v-619h322v-114z" />
    <glyph glyph-name="lcommaaccent" unicode="&#x13c;" horiz-adv-x="231" 
d="M181 -151q0 -46 -33.5 -95.5t-87.5 -76.5l-12 19q53 45 69 104q-30 1 -48 19.5t-18 45.5q0 26 18 44t43 18q32 0 50.5 -22.5t18.5 -55.5zM172 0h-113v733h113v-733z" />
    <glyph glyph-name="Lcaron" unicode="&#x13d;" horiz-adv-x="545" 
d="M323 733l90 -17q0 -121 -97 -193l-51 33q54 64 58 177zM527 0h-447v733h125v-619h322v-114z" />
    <glyph glyph-name="lcaron" unicode="&#x13e;" horiz-adv-x="231" 
d="M262 733l90 -17q0 -121 -97 -193l-51 33q54 64 58 177zM172 0h-113v733h113v-733z" />
    <glyph glyph-name="Ldot" unicode="&#x13f;" horiz-adv-x="545" 
d="M527 0h-447v733h125v-619h322v-114zM359 384q0 -26 18.5 -44.5t43.5 -18.5q26 0 44.5 18.5t18.5 44.5t-18.5 44.5t-44.5 18.5t-44 -18.5t-18 -44.5z" />
    <glyph glyph-name="ldot" unicode="&#x140;" horiz-adv-x="336" 
d="M172 0h-113v733h113v-733zM221 367q0 -26 18.5 -44.5t43.5 -18.5q26 0 44.5 18.5t18.5 44.5t-18.5 44.5t-44.5 18.5t-44 -18.5t-18 -44.5z" />
    <glyph glyph-name="Lslash" unicode="&#x141;" horiz-adv-x="545" 
d="M527 0h-447v273l-58 -26v107l58 27v352h125v-296l103 47v-107q-103 -46 -103 -47v-216h322v-114z" />
    <glyph glyph-name="lslash" unicode="&#x142;" horiz-adv-x="246" 
d="M227 347l-47 -24v-323h-114v267l-43 -22v107l43 22v359h114v-303l47 24v-107z" />
    <glyph glyph-name="Nacute" unicode="&#x143;" horiz-adv-x="758" 
d="M549 873l-202 -89l-29 55l182 134zM678 -11l-14 -3l-459 484v-470h-125v743l20 4l453 -477v463h125v-744z" />
    <glyph glyph-name="nacute" unicode="&#x144;" horiz-adv-x="512" 
d="M430 568l-202 -89l-29 55l182 134zM463 0h-114v264q0 40 -15.5 58.5t-49.5 18.5q-58 0 -113 -60v-281h-114v427h110v-71q77 79 158 79q68 0 103 -38.5t35 -104.5v-292z" />
    <glyph glyph-name="Ncommaaccent" unicode="&#x145;" horiz-adv-x="758" 
d="M444 -139q0 -46 -33.5 -95.5t-87.5 -76.5l-12 19q53 45 69 104q-30 1 -48 19.5t-18 45.5q0 26 18 44t43 18q32 0 50.5 -22.5t18.5 -55.5zM678 -11l-14 -3l-459 484v-470h-125v743l20 4l453 -477v463h125v-744z" />
    <glyph glyph-name="ncommaaccent" unicode="&#x146;" horiz-adv-x="512" 
d="M325 -151q0 -46 -33.5 -95.5t-87.5 -76.5l-12 19q53 45 69 104q-30 1 -48 19.5t-18 45.5q0 26 18 44t43 18q32 0 50.5 -22.5t18.5 -55.5zM463 0h-114v264q0 40 -15.5 58.5t-49.5 18.5q-58 0 -113 -60v-281h-114v427h110v-71q77 79 158 79q68 0 103 -38.5t35 -104.5v-292z
" />
    <glyph glyph-name="Ncaron" unicode="&#x147;" horiz-adv-x="758" 
d="M547 969l-149 -178h-44l-144 178h106l65 -85l64 85h102zM678 -11l-14 -3l-459 484v-470h-125v743l20 4l453 -477v463h125v-744z" />
    <glyph glyph-name="ncaron" unicode="&#x148;" horiz-adv-x="512" 
d="M428 664l-149 -178h-44l-144 178h106l65 -85l64 85h102zM463 0h-114v264q0 40 -15.5 58.5t-49.5 18.5q-58 0 -113 -60v-281h-114v427h110v-71q77 79 158 79q68 0 103 -38.5t35 -104.5v-292z" />
    <glyph glyph-name="Omacron" unicode="&#x14c;" horiz-adv-x="851" 
d="M569 816h-287v86h287v-86zM796 366q0 -162 -107.5 -270t-266.5 -108t-263 107.5t-104 270.5t107 271t267 108q159 0 263 -107.5t104 -271.5zM662 366q0 116 -66 191.5t-170 75.5t-170.5 -75.5t-66.5 -191.5q0 -115 66.5 -191t170.5 -76q103 0 169.5 76t66.5 191z" />
    <glyph glyph-name="omacron" unicode="&#x14d;" horiz-adv-x="523" 
d="M405 504h-287v86h287v-86zM482 214q0 -94 -61 -158t-161 -64q-101 0 -162.5 64t-61.5 158q0 93 61.5 157t162.5 64q100 0 161 -63.5t61 -157.5zM370 214q0 61 -30 97.5t-80 36.5q-51 0 -81 -36t-30 -98t30 -98.5t81 -36.5q50 0 80 36.5t30 98.5z" />
    <glyph glyph-name="Obreve" unicode="&#x14e;" horiz-adv-x="851" 
d="M796 366q0 -162 -107.5 -270t-266.5 -108t-263 107.5t-104 270.5t107 271t267 108q159 0 263 -107.5t104 -271.5zM662 366q0 116 -66 191.5t-170 75.5t-170.5 -75.5t-66.5 -191.5q0 -115 66.5 -191t170.5 -76q103 0 169.5 76t66.5 191zM568 938q0 -58 -39 -98t-104 -40
t-103.5 40t-38.5 98l88 7q0 -33 14 -51t40 -18q55 0 55 69z" />
    <glyph glyph-name="obreve" unicode="&#x14f;" horiz-adv-x="523" 
d="M482 214q0 -94 -61 -158t-161 -64q-101 0 -162.5 64t-61.5 158q0 93 61.5 157t162.5 64q100 0 161 -63.5t61 -157.5zM370 214q0 61 -30 97.5t-80 36.5q-51 0 -81 -36t-30 -98t30 -98.5t81 -36.5q50 0 80 36.5t30 98.5zM404 626q0 -58 -39 -98t-104 -40t-103.5 40
t-38.5 98l88 7q0 -33 14 -51t40 -18q55 0 55 69z" />
    <glyph glyph-name="Ohungarumlaut" unicode="&#x150;" horiz-adv-x="851" 
d="M496 953l-145 -155l-42 37l112 182zM655 943l-147 -154l-42 38l113 180zM796 366q0 -162 -107.5 -270t-266.5 -108t-263 107.5t-104 270.5t107 271t267 108q159 0 263 -107.5t104 -271.5zM662 366q0 116 -66 191.5t-170 75.5t-170.5 -75.5t-66.5 -191.5q0 -115 66.5 -191
t170.5 -76q103 0 169.5 76t66.5 191z" />
    <glyph glyph-name="ohungarumlaut" unicode="&#x151;" horiz-adv-x="523" 
d="M332 641l-145 -155l-42 37l112 182zM491 631l-147 -154l-42 38l113 180zM482 214q0 -94 -61 -158t-161 -64q-101 0 -162.5 64t-61.5 158q0 93 61.5 157t162.5 64q100 0 161 -63.5t61 -157.5zM370 214q0 61 -30 97.5t-80 36.5q-51 0 -81 -36t-30 -98t30 -98.5t81 -36.5
q50 0 80 36.5t30 98.5z" />
    <glyph glyph-name="OE" unicode="&#x152;" horiz-adv-x="1076" 
d="M1009 0h-392q-66 -6 -134 -6q-200 0 -314 105t-114 260q0 163 110.5 271t310.5 108q62 0 134 -5h399v-114h-321v-192h290v-110h-290v-203h321v-114zM563 111v511q-37 6 -105 6q-129 0 -199 -74t-70 -195q0 -114 75.5 -184t203.5 -70q56 0 95 6z" />
    <glyph glyph-name="oe" unicode="&#x153;" horiz-adv-x="805" 
d="M780 230q0 -28 -3 -51h-296q13 -98 133 -98q49 0 123 23l14 -88q-87 -24 -146 -24q-122 0 -182 80q-62 -80 -166 -80q-98 0 -159.5 64.5t-61.5 157.5t61.5 157t159.5 64q107 0 168 -82q57 82 163 82q90 0 141 -58t51 -147zM679 250q-4 44 -29 70t-68 26q-86 0 -99 -96
h196zM370 214q0 62 -30 98t-81 36q-50 0 -80 -36.5t-30 -97.5q0 -62 30 -98.5t80 -36.5q51 0 81 36.5t30 98.5z" />
    <glyph glyph-name="Racute" unicode="&#x154;" horiz-adv-x="633" 
d="M484 880l-202 -89l-29 55l182 134zM623 0h-145l-160 264q-13 -1 -39 -1q-25 0 -73 2v-265h-125v726q99 12 193 12q149 0 224.5 -64t75.5 -167q0 -71 -37.5 -126.5t-105.5 -85.5zM442 501q0 56 -40.5 90.5t-111.5 34.5q-54 0 -84 -6v-250q31 -4 72 -4q80 0 122 35.5
t42 99.5z" />
    <glyph glyph-name="racute" unicode="&#x155;" horiz-adv-x="334" 
d="M354 568l-202 -89l-29 55l182 134zM319 323q-110 12 -148 -42v-281h-114v427h110v-70q59 78 152 78v-112z" />
    <glyph glyph-name="Rcommaaccent" unicode="&#x156;" horiz-adv-x="633" 
d="M379 -139q0 -46 -33.5 -95.5t-87.5 -76.5l-12 19q53 45 69 104q-30 1 -48 19.5t-18 45.5q0 26 18 44t43 18q32 0 50.5 -22.5t18.5 -55.5zM623 0h-145l-160 264q-13 -1 -39 -1q-25 0 -73 2v-265h-125v726q99 12 193 12q149 0 224.5 -64t75.5 -167q0 -71 -37.5 -126.5
t-105.5 -85.5zM442 501q0 56 -40.5 90.5t-111.5 34.5q-54 0 -84 -6v-250q31 -4 72 -4q80 0 122 35.5t42 99.5z" />
    <glyph glyph-name="rcommaaccent" unicode="&#x157;" horiz-adv-x="334" 
d="M183 -151q0 -46 -33.5 -95.5t-87.5 -76.5l-12 19q53 45 69 104q-30 1 -48 19.5t-18 45.5q0 26 18 44t43 18q32 0 50.5 -22.5t18.5 -55.5zM319 323q-110 12 -148 -42v-281h-114v427h110v-70q59 78 152 78v-112z" />
    <glyph glyph-name="Rcaron" unicode="&#x158;" horiz-adv-x="633" 
d="M482 976l-149 -178h-44l-144 178h106l65 -85l64 85h102zM623 0h-145l-160 264q-13 -1 -39 -1q-25 0 -73 2v-265h-125v726q99 12 193 12q149 0 224.5 -64t75.5 -167q0 -71 -37.5 -126.5t-105.5 -85.5zM442 501q0 56 -40.5 90.5t-111.5 34.5q-54 0 -84 -6v-250q31 -4 72 -4
q80 0 122 35.5t42 99.5z" />
    <glyph glyph-name="rcaron" unicode="&#x159;" horiz-adv-x="334" 
d="M352 664l-149 -178h-44l-144 178h106l65 -85l64 85h102zM319 323q-110 12 -148 -42v-281h-114v427h110v-70q59 78 152 78v-112z" />
    <glyph glyph-name="Sacute" unicode="&#x15a;" horiz-adv-x="537" 
d="M448 880l-202 -89l-29 55l182 134zM497 207q0 -92 -66 -155.5t-176 -63.5q-120 0 -230 72l43 112q94 -68 191 -68q55 0 83 27.5t28 68.5t-27.5 69t-110.5 63q-93 39 -133.5 89.5t-40.5 118.5q0 84 65.5 144.5t175.5 60.5q105 0 184 -53l-40 -110q-75 52 -147 52
q-55 0 -84 -26t-29 -65q0 -36 28.5 -61.5t98.5 -56.5q106 -46 146.5 -95t40.5 -123z" />
    <glyph glyph-name="sacute" unicode="&#x15b;" horiz-adv-x="386" 
d="M374 568l-202 -89l-29 55l182 134zM357 128q0 -59 -47 -97.5t-118 -38.5q-90 0 -169 56l44 81q63 -50 123 -50q61 0 61 44q0 22 -31.5 37.5t-70 25.5t-70 39t-31.5 75q0 58 45.5 96.5t117.5 38.5q71 0 140 -40l-35 -83q-61 37 -110 37q-27 0 -41.5 -11.5t-14.5 -28.5
t21.5 -29t52 -21.5t60.5 -23t51.5 -41t21.5 -66.5z" />
    <glyph glyph-name="Scedilla" unicode="&#x15e;" horiz-adv-x="537" 
d="M374 -147q0 -43 -30 -72.5t-84 -29.5q-56 0 -120 38l28 61q52 -33 95 -33q36 0 36 34q0 42 -96 45l-4 9l22 85q-105 9 -196 70l43 112q94 -68 191 -68q55 0 83 27.5t28 68.5t-27.5 69t-110.5 63q-93 39 -133.5 89.5t-40.5 118.5q0 84 65.5 144.5t175.5 60.5
q105 0 184 -53l-40 -110q-75 52 -147 52q-55 0 -84 -26t-29 -65q0 -36 28.5 -61.5t98.5 -56.5q106 -46 146.5 -95t40.5 -123q0 -88 -60.5 -150t-161.5 -68l-8 -35q107 -25 107 -101z" />
    <glyph glyph-name="scedilla" unicode="&#x15f;" horiz-adv-x="386" 
d="M301 -147q0 -43 -30 -72.5t-84 -29.5q-56 0 -120 38l28 61q53 -33 95 -33q36 0 36 34q0 42 -96 45l-4 9l24 90q-68 10 -127 53l44 81q63 -50 123 -50q61 0 61 44q0 22 -31.5 37.5t-70 25.5t-70 39t-31.5 75q0 58 45.5 96.5t117.5 38.5q71 0 140 -40l-35 -83
q-61 37 -110 37q-27 0 -41.5 -11.5t-14.5 -28.5t21.5 -29t52 -21.5t60.5 -23t51.5 -41t21.5 -66.5q0 -56 -43.5 -94t-110.5 -41l-9 -39q107 -25 107 -101z" />
    <glyph glyph-name="Scaron" unicode="&#x160;" horiz-adv-x="537" 
d="M446 976l-149 -178h-44l-144 178h106l65 -85l64 85h102zM497 207q0 -92 -66 -155.5t-176 -63.5q-120 0 -230 72l43 112q94 -68 191 -68q55 0 83 27.5t28 68.5t-27.5 69t-110.5 63q-93 39 -133.5 89.5t-40.5 118.5q0 84 65.5 144.5t175.5 60.5q105 0 184 -53l-40 -110
q-75 52 -147 52q-55 0 -84 -26t-29 -65q0 -36 28.5 -61.5t98.5 -56.5q106 -46 146.5 -95t40.5 -123z" />
    <glyph glyph-name="scaron" unicode="&#x161;" horiz-adv-x="386" 
d="M372 664l-149 -178h-44l-144 178h106l65 -85l64 85h102zM357 128q0 -59 -47 -97.5t-118 -38.5q-90 0 -169 56l44 81q63 -50 123 -50q61 0 61 44q0 22 -31.5 37.5t-70 25.5t-70 39t-31.5 75q0 58 45.5 96.5t117.5 38.5q71 0 140 -40l-35 -83q-61 37 -110 37
q-27 0 -41.5 -11.5t-14.5 -28.5t21.5 -29t52 -21.5t60.5 -23t51.5 -41t21.5 -66.5z" />
    <glyph glyph-name="Tcommaaccent" unicode="&#x162;" horiz-adv-x="640" 
d="M385 -151q0 -46 -33.5 -95.5t-87.5 -76.5l-12 19q53 45 69 104q-30 1 -48 19.5t-18 45.5q0 26 18 44t43 18q32 0 50.5 -22.5t18.5 -55.5zM615 619h-232v-619h-125v619h-233v114h590v-114z" />
    <glyph glyph-name="tcommaaccent" unicode="&#x163;" horiz-adv-x="339" 
d="M256 -151q0 -46 -33.5 -95.5t-87.5 -76.5l-12 19q53 45 69 104q-30 1 -48 19.5t-18 45.5q0 26 18 44t43 18q32 0 50.5 -22.5t18.5 -55.5zM321 335h-119v-196q0 -52 51 -52q14 0 37 5l21 -88q-55 -12 -91 -12q-64 0 -97.5 35.5t-33.5 117.5v190h-81v15l81 81v69l113 71
v-144h119v-92z" />
    <glyph glyph-name="Tcaron" unicode="&#x164;" horiz-adv-x="640" 
d="M488 976l-149 -178h-44l-144 178h106l65 -85l64 85h102zM615 619h-232v-619h-125v619h-233v114h590v-114z" />
    <glyph glyph-name="tcaron" unicode="&#x165;" horiz-adv-x="339" 
d="M293 696l90 -17q0 -121 -97 -193l-51 33q54 64 58 177zM321 335h-119v-196q0 -52 51 -52q14 0 37 5l21 -88q-55 -12 -91 -12q-64 0 -97.5 35.5t-33.5 117.5v190h-81v15l81 81v69l113 71v-144h119v-92z" />
    <glyph glyph-name="Umacron" unicode="&#x16a;" horiz-adv-x="729" 
d="M658 281q0 -139 -79 -216t-216 -77q-138 0 -214.5 76t-76.5 217v452h125v-443q0 -93 43.5 -140.5t124.5 -47.5q80 0 124 48t44 140v443h125v-452zM509 809h-287v86h287v-86z" />
    <glyph glyph-name="umacron" unicode="&#x16b;" horiz-adv-x="511" 
d="M459 0h-110v66q-74 -74 -155 -74q-69 0 -105 39t-36 104v292h114v-264q0 -76 68 -76q59 0 110 56v284h114v-427zM399 504h-287v86h287v-86z" />
    <glyph glyph-name="Ubreve" unicode="&#x16c;" horiz-adv-x="729" 
d="M658 281q0 -139 -79 -216t-216 -77q-138 0 -214.5 76t-76.5 217v452h125v-443q0 -93 43.5 -140.5t124.5 -47.5q80 0 124 48t44 140v443h125v-452zM508 931q0 -58 -39 -98t-104 -40t-103.5 40t-38.5 98l88 7q0 -33 14 -51t40 -18q55 0 55 69z" />
    <glyph glyph-name="ubreve" unicode="&#x16d;" horiz-adv-x="511" 
d="M459 0h-110v66q-74 -74 -155 -74q-69 0 -105 39t-36 104v292h114v-264q0 -76 68 -76q59 0 110 56v284h114v-427zM398 626q0 -58 -39 -98t-104 -40t-103.5 40t-38.5 98l88 7q0 -33 14 -51t40 -18q55 0 55 69z" />
    <glyph glyph-name="Uring" unicode="&#x16e;" horiz-adv-x="729" 
d="M483 906q0 -48 -33 -81t-85 -33t-85 33t-33 81q0 47 33 80.5t85 33.5t85 -33.5t33 -80.5zM415 906q0 25 -14.5 41t-35.5 16t-35.5 -16t-14.5 -41t14.5 -41t35.5 -16t35.5 16t14.5 41zM658 281q0 -139 -79 -216t-216 -77q-138 0 -214.5 76t-76.5 217v452h125v-443
q0 -93 43.5 -140.5t124.5 -47.5q80 0 124 48t44 140v443h125v-452z" />
    <glyph glyph-name="uring" unicode="&#x16f;" horiz-adv-x="511" 
d="M374 601q0 -48 -33 -81t-85 -33t-85 33t-33 81q0 47 33 80.5t85 33.5t85 -33.5t33 -80.5zM306 601q0 25 -14.5 41t-35.5 16t-35.5 -16t-14.5 -41t14.5 -41t35.5 -16t35.5 16t14.5 41zM459 0h-110v66q-74 -74 -155 -74q-69 0 -105 39t-36 104v292h114v-264q0 -76 68 -76
q59 0 110 56v284h114v-427z" />
    <glyph glyph-name="Uhungarumlaut" unicode="&#x170;" horiz-adv-x="729" 
d="M658 281q0 -139 -79 -216t-216 -77q-138 0 -214.5 76t-76.5 217v452h125v-443q0 -93 43.5 -140.5t124.5 -47.5q80 0 124 48t44 140v443h125v-452zM436 946l-145 -155l-42 37l112 182zM595 936l-147 -154l-42 38l113 180z" />
    <glyph glyph-name="uhungarumlaut" unicode="&#x171;" horiz-adv-x="511" 
d="M459 0h-110v66q-74 -74 -155 -74q-69 0 -105 39t-36 104v292h114v-264q0 -76 68 -76q59 0 110 56v284h114v-427zM327 641l-145 -155l-42 37l112 182zM486 631l-147 -154l-42 38l113 180z" />
    <glyph glyph-name="Uogonek" unicode="&#x172;" horiz-adv-x="729" 
d="M658 281q0 -126 -66 -202t-182 -88q-54 -68 -54 -107q0 -36 33 -36q23 0 47 24l32 -45q-43 -48 -103 -49q-42 0 -66.5 24.5t-23.5 63.5q0 53 61 123q-126 7 -195 82t-69 210v452h125v-443q0 -93 43.5 -140.5t124.5 -47.5q80 0 124 48t44 140v443h125v-452z" />
    <glyph glyph-name="uogonek" unicode="&#x173;" horiz-adv-x="511" 
d="M459 0h-40q-57 -70 -57 -111q0 -36 33 -36q23 0 47 24l32 -45q-43 -48 -103 -49q-42 0 -66.5 24.5t-23.5 63.5q0 32 16 61t52 69v65q-74 -74 -155 -74q-69 0 -105 39t-36 104v292h114v-264q0 -76 68 -76q59 0 110 56v284h114v-427z" />
    <glyph glyph-name="Wcircumflex" unicode="&#x174;" horiz-adv-x="969" 
d="M653 805h-107l-65 84l-64 -84h-101l148 177h45zM964 733l-232 -745l-20 -2l-228 510l-225 -510l-19 2l-235 745h138l132 -462l204 468h14l205 -465l130 459h136z" />
    <glyph glyph-name="wcircumflex" unicode="&#x175;" horiz-adv-x="635" 
d="M487 493h-107l-65 84l-64 -84h-101l148 177h45zM636 427l-165 -438h-20l-131 260l-132 -260h-20l-166 438h126l71 -240l110 241h20l113 -241l69 240h125z" />
    <glyph glyph-name="Ycircumflex" unicode="&#x176;" horiz-adv-x="671" 
d="M656 733l-258 -425v-308h-125v309l-258 424h143l180 -310l178 310h140zM504 798h-107l-65 84l-64 -84h-101l148 177h45z" />
    <glyph glyph-name="ycircumflex" unicode="&#x177;" horiz-adv-x="461" 
d="M463 427l-302 -643h-113l130 259l-180 384h126l109 -271l107 271h123zM399 493h-107l-65 84l-64 -84h-101l148 177h45z" />
    <glyph glyph-name="Ydieresis" unicode="&#x178;" horiz-adv-x="671" 
d="M656 733l-258 -425v-308h-125v309l-258 424h143l180 -310l178 310h140zM489 862q0 -26 -18.5 -44.5t-43.5 -18.5q-26 0 -44.5 18.5t-18.5 44.5t18.5 44.5t44.5 18.5t44 -18.5t18 -44.5zM307 862q0 -26 -18.5 -44.5t-44.5 -18.5t-44.5 18.5t-18.5 44.5t18.5 44.5
t44.5 18.5t44.5 -18.5t18.5 -44.5z" />
    <glyph glyph-name="Zacute" unicode="&#x179;" horiz-adv-x="650" 
d="M495 880l-202 -89l-29 55l182 134zM620 718l-389 -604h380v-114h-576l-5 15l389 604h-363v114h559z" />
    <glyph glyph-name="zacute" unicode="&#x17a;" horiz-adv-x="424" 
d="M385 568l-202 -89l-29 55l182 134zM405 412l-224 -318h219v-94h-378l-5 15l223 318h-204v94h364z" />
    <glyph glyph-name="Zdotaccent" unicode="&#x17b;" horiz-adv-x="650" 
d="M620 718l-389 -604h380v-114h-576l-5 15l389 604h-363v114h559zM262 869q0 26 18 44.5t44 18.5t44.5 -18.5t18.5 -44.5t-18.5 -44.5t-44.5 -18.5q-25 0 -43.5 18.5t-18.5 44.5z" />
    <glyph glyph-name="zdotaccent" unicode="&#x17c;" horiz-adv-x="424" 
d="M405 412l-224 -318h219v-94h-378l-5 15l223 318h-204v94h364zM152 557q0 26 18 44.5t44 18.5t44.5 -18.5t18.5 -44.5t-18.5 -44.5t-44.5 -18.5q-25 0 -43.5 18.5t-18.5 44.5z" />
    <glyph glyph-name="Zcaron" unicode="&#x17d;" horiz-adv-x="650" 
d="M493 976l-149 -178h-44l-144 178h106l65 -85l64 85h102zM620 718l-389 -604h380v-114h-576l-5 15l389 604h-363v114h559z" />
    <glyph glyph-name="zcaron" unicode="&#x17e;" horiz-adv-x="424" 
d="M383 664l-149 -178h-44l-144 178h106l65 -85l64 85h102zM405 412l-224 -318h219v-94h-378l-5 15l223 318h-204v94h364z" />
    <glyph glyph-name="florin" unicode="&#x192;" horiz-adv-x="420" 
d="M401 580l-15 -101q-20 5 -40 5q-44 0 -65.5 -24t-28.5 -80l-4 -38h93v-92h-104l-29 -250h-112l5 42l9 80.5l10 91.5l4 36h-81v7l93 90l3 29q25 212 200 212q35 0 62 -8z" />
    <glyph glyph-name="Aringacute" unicode="&#x1fa;" horiz-adv-x="687" 
d="M510 1047l-202 -89l-29 55l182 134zM461 811q0 -41 -24.5 -72t-65.5 -39l319 -700h-132l-71 168h-290l-71 -168h-129l318 700q-41 9 -65 40t-24 71q0 47 32.5 80.5t84.5 33.5t85 -33.5t33 -80.5zM446 267l-104 245l-104 -245h208zM394 811q0 25 -14.5 41t-36.5 16
q-21 0 -35 -16t-14 -41t14 -41t35 -16q22 0 36.5 16t14.5 41z" />
    <glyph glyph-name="aringacute" unicode="&#x1fb;" 
d="M412 0h-108v41q-51 -49 -124 -49q-65 0 -107.5 36t-42.5 99q0 58 42.5 95.5t112.5 37.5q57 0 115 -27v18q0 95 -103 95q-47 0 -106 -18l-13 85q72 22 137 22q197 0 197 -188v-247zM300 107v53q-44 29 -88 29q-33 0 -54 -16.5t-21 -44.5q0 -29 20 -45.5t57 -16.5
q53 0 86 41zM400 841l-202 -89l-29 55l182 134zM351 601q0 -48 -33 -81t-85 -33t-85 33t-33 81q0 47 33 80.5t85 33.5t85 -33.5t33 -80.5zM283 601q0 25 -14.5 41t-35.5 16t-35.5 -16t-14.5 -41t14.5 -41t35.5 -16t35.5 16t14.5 41z" />
    <glyph glyph-name="AEacute" unicode="&#x1fc;" horiz-adv-x="1017" 
d="M835 880l-202 -89l-29 55l182 134zM950 0h-446v180h-245l-122 -180h-143l510 733h446v-114h-321v-192h290v-110h-290v-203h321v-114zM504 283v266l-178 -266h178z" />
    <glyph glyph-name="aeacute" unicode="&#x1fd;" horiz-adv-x="740" 
d="M544 568l-202 -89l-29 55l182 134zM301 232v19q0 95 -104 95q-45 0 -106 -18l-13 85q72 22 135 22q114 0 157 -68q58 68 149 68t141.5 -58t50.5 -147q0 -28 -3 -51h-296q15 -98 134 -98q49 0 123 23l14 -88q-87 -24 -146 -24q-120 0 -182 82q-68 -82 -168 -82
q-69 0 -113 36t-44 99q0 58 42.5 95.5t111.5 37.5q61 0 117 -28zM610 250q-3 44 -28 70t-68 26q-86 0 -99 -96h195zM314 145q-37 47 -104 47q-32 0 -52.5 -16.5t-20.5 -45.5t20.5 -45t56.5 -16q31 0 59 19t41 57z" />
    <glyph glyph-name="Oslashacute" unicode="&#x1fe;" horiz-adv-x="851" 
d="M796 366q0 -162 -107.5 -270t-266.5 -108q-134 0 -232 79l-73 -73l-68 69l76 74q-70 100 -70 229q0 163 107 271t267 108q135 0 232 -80l73 73l68 -67l-76 -75q70 -98 70 -230zM662 366q0 75 -33 136q-350 -349 -350 -350q63 -53 147 -53q103 0 169.5 76t66.5 191z
M572 580q-61 53 -146 53q-104 0 -170.5 -75.5t-66.5 -191.5q0 -75 33 -135zM596 880l-202 -89l-29 55l182 134z" />
    <glyph glyph-name="oslashacute" unicode="&#x1ff;" horiz-adv-x="523" 
d="M488 394l-48 -46q42 -56 42 -134q0 -94 -61 -158t-161 -64q-83 0 -143 46l-48 -46l-39 39l49 47q-43 58 -43 136q0 94 61.5 157.5t162.5 63.5q87 0 143 -48l47 46zM158 153l175 167q-28 28 -73 28q-52 0 -82 -35.5t-30 -98.5q0 -35 10 -61zM361 272l-174 -167
q29 -26 73 -26q51 0 80.5 36t29.5 99q0 32 -9 58zM432 568l-202 -89l-29 55l182 134z" />
    <glyph glyph-name="Scommaaccent" unicode="&#x218;" horiz-adv-x="537" 
d="M328 -151q0 -46 -33.5 -95.5t-87.5 -76.5l-12 19q53 45 69 104q-30 1 -48 19.5t-18 45.5q0 26 18 44t43 18q32 0 50.5 -22.5t18.5 -55.5zM497 207q0 -92 -66 -155.5t-176 -63.5q-120 0 -230 72l43 112q94 -68 191 -68q55 0 83 27.5t28 68.5t-27.5 69t-110.5 63
q-93 39 -133.5 89.5t-40.5 118.5q0 84 65.5 144.5t175.5 60.5q105 0 184 -53l-40 -110q-75 52 -147 52q-55 0 -84 -26t-29 -65q0 -36 28.5 -61.5t98.5 -56.5q106 -46 146.5 -95t40.5 -123z" />
    <glyph glyph-name="scommaaccent" unicode="&#x219;" horiz-adv-x="386" 
d="M261 -151q0 -46 -33.5 -95.5t-87.5 -76.5l-12 19q53 45 69 104q-30 1 -48 19.5t-18 45.5q0 26 18 44t43 18q32 0 50.5 -22.5t18.5 -55.5zM357 128q0 -59 -47 -97.5t-118 -38.5q-90 0 -169 56l44 81q63 -50 123 -50q61 0 61 44q0 22 -31.5 37.5t-70 25.5t-70 39t-31.5 75
q0 58 45.5 96.5t117.5 38.5q71 0 140 -40l-35 -83q-61 37 -110 37q-27 0 -41.5 -11.5t-14.5 -28.5t21.5 -29t52 -21.5t60.5 -23t51.5 -41t21.5 -66.5z" />
    <glyph glyph-name="schwa" unicode="&#x259;" horiz-adv-x="476" 
d="M29 197q0 36 3 51h296q-15 98 -133 98q-50 0 -124 -23l-14 88q89 24 149 24q115 0 174.5 -62t59.5 -158q0 -92 -58 -157.5t-158 -65.5q-93 0 -144 58t-51 147zM326 177h-196q4 -44 29 -70t67 -26t68 25t32 71z" />
    <glyph glyph-name="circumflex" unicode="&#x2c6;" horiz-adv-x="470" 
d="M407 493h-107l-65 84l-64 -84h-101l148 177h45z" />
    <glyph glyph-name="caron" unicode="&#x2c7;" horiz-adv-x="470" 
d="M401 664l-149 -178h-44l-144 178h106l65 -85l64 85h102z" />
    <glyph glyph-name="breve" unicode="&#x2d8;" horiz-adv-x="470" 
d="M378 626q0 -58 -39 -98t-104 -40t-103.5 40t-38.5 98l88 7q0 -33 14 -51t40 -18q55 0 55 69z" />
    <glyph glyph-name="dotaccent" unicode="&#x2d9;" horiz-adv-x="440" 
d="M158 557q0 26 18 44.5t44 18.5t44.5 -18.5t18.5 -44.5t-18.5 -44.5t-44.5 -18.5q-25 0 -43.5 18.5t-18.5 44.5z" />
    <glyph glyph-name="ring" unicode="&#x2da;" horiz-adv-x="470" 
d="M353 601q0 -48 -33 -81t-85 -33t-85 33t-33 81q0 47 33 80.5t85 33.5t85 -33.5t33 -80.5zM285 601q0 25 -14.5 41t-35.5 16t-35.5 -16t-14.5 -41t14.5 -41t35.5 -16t35.5 16t14.5 41z" />
    <glyph glyph-name="ogonek" unicode="&#x2db;" horiz-adv-x="470" 
d="M343 -173q-43 -48 -103 -49q-42 0 -66.5 24.5t-23.5 63.5q0 39 24 74.5t83 96.5l41 -30q-67 -82 -67 -123q0 -36 33 -36q23 0 47 24z" />
    <glyph glyph-name="tilde" unicode="&#x2dc;" horiz-adv-x="470" 
d="M406 554q-49 -59 -107 -59q-33 0 -66 19q-31 19 -57 19q-36 0 -68 -38l-40 64q48 59 107 59q33 0 66 -19q29 -18 55 -18q35 0 67 38z" />
    <glyph glyph-name="hungarumlaut" unicode="&#x2dd;" horiz-adv-x="470" 
d="M264 641l-145 -155l-42 37l112 182zM423 631l-147 -154l-42 38l113 180z" />
    <glyph glyph-name="commaaccent" unicode="&#x326;" horiz-adv-x="189" 
d="M161 -151q0 -46 -33.5 -95.5t-87.5 -76.5l-12 19q53 45 69 104q-30 1 -48 19.5t-18 45.5q0 26 18 44t43 18q32 0 50.5 -22.5t18.5 -55.5z" />
    <glyph glyph-name="Wgrave" unicode="&#x1e80;" horiz-adv-x="969" 
d="M964 733l-232 -745l-20 -2l-228 510l-225 -510l-19 2l-235 745h138l132 -462l204 468h14l205 -465l130 459h136zM541 844l-33 -53l-204 91l53 97z" />
    <glyph glyph-name="wgrave" unicode="&#x1e81;" horiz-adv-x="635" 
d="M636 427l-165 -438h-20l-131 260l-132 -260h-20l-166 438h126l71 -240l110 241h20l113 -241l69 240h125zM375 532l-33 -53l-204 91l53 97z" />
    <glyph glyph-name="Wacute" unicode="&#x1e82;" horiz-adv-x="969" 
d="M655 880l-202 -89l-29 55l182 134zM964 733l-232 -745l-20 -2l-228 510l-225 -510l-19 2l-235 745h138l132 -462l204 468h14l205 -465l130 459h136z" />
    <glyph glyph-name="wacute" unicode="&#x1e83;" horiz-adv-x="635" 
d="M489 568l-202 -89l-29 55l182 134zM636 427l-165 -438h-20l-131 260l-132 -260h-20l-166 438h126l71 -240l110 241h20l113 -241l69 240h125z" />
    <glyph glyph-name="Wdieresis" unicode="&#x1e84;" horiz-adv-x="969" 
d="M638 869q0 -26 -18.5 -44.5t-43.5 -18.5q-26 0 -44.5 18.5t-18.5 44.5t18.5 44.5t44.5 18.5t44 -18.5t18 -44.5zM456 869q0 -26 -18.5 -44.5t-44.5 -18.5q-25 0 -44 19t-19 44q0 26 18.5 44.5t44.5 18.5t44.5 -18.5t18.5 -44.5zM964 733l-232 -745l-20 -2l-228 510
l-225 -510l-19 2l-235 745h138l132 -462l204 468h14l205 -465l130 459h136z" />
    <glyph glyph-name="wdieresis" unicode="&#x1e85;" horiz-adv-x="635" 
d="M472 557q0 -26 -18.5 -44.5t-43.5 -18.5q-26 0 -44.5 18.5t-18.5 44.5t18.5 44.5t44.5 18.5t44 -18.5t18 -44.5zM290 557q0 -26 -18.5 -44.5t-44.5 -18.5q-25 0 -44 19t-19 44q0 26 18.5 44.5t44.5 18.5t44.5 -18.5t18.5 -44.5zM636 427l-165 -438h-20l-131 260
l-132 -260h-20l-166 438h126l71 -240l110 241h20l113 -241l69 240h125z" />
    <glyph glyph-name="Ygrave" unicode="&#x1ef2;" horiz-adv-x="671" 
d="M656 733l-258 -425v-308h-125v309l-258 424h143l180 -310l178 310h140zM391 837l-33 -53l-204 91l53 97z" />
    <glyph glyph-name="ygrave" unicode="&#x1ef3;" horiz-adv-x="461" 
d="M463 427l-302 -643h-113l130 259l-180 384h126l109 -271l107 271h123zM287 532l-33 -53l-204 91l53 97z" />
    <glyph glyph-name="enspace" unicode="&#x2002;" horiz-adv-x="500" 
 />
    <glyph glyph-name="emspace" unicode="&#x2003;" horiz-adv-x="1000" 
 />
    <glyph glyph-name="threeperemspace" unicode="&#x2004;" horiz-adv-x="333" 
 />
    <glyph glyph-name="fourperemspace" unicode="&#x2005;" horiz-adv-x="250" 
 />
    <glyph glyph-name="figurespace" unicode="&#x2007;" horiz-adv-x="520" 
 />
    <glyph glyph-name="thinspace" unicode="&#x2009;" horiz-adv-x="133" 
 />
    <glyph glyph-name="hairspace" unicode="&#x200a;" horiz-adv-x="75" 
 />
    <glyph glyph-name="endash" unicode="&#x2013;" horiz-adv-x="500" 
d="M450 206h-400v77h400v-77z" />
    <glyph glyph-name="emdash" unicode="&#x2014;" horiz-adv-x="750" 
d="M700 206h-650v77h650v-77z" />
    <glyph glyph-name="quoteleft" unicode="&#x2018;" horiz-adv-x="192" 
d="M155 577q0 -24 -17.5 -41t-41.5 -17q-30 0 -47.5 20.5t-17.5 51.5q0 43 30 87t82 71l11 -18q-45 -39 -62 -93q28 -1 45.5 -18.5t17.5 -42.5z" />
    <glyph glyph-name="quoteright" unicode="&#x2019;" horiz-adv-x="192" 
d="M161 673q0 -43 -30 -87t-81 -71l-12 18q45 39 62 93q-28 1 -45 18.5t-17 42.5q0 24 17 41t41 17q30 0 47.5 -20.5t17.5 -51.5z" />
    <glyph glyph-name="quotesinglbase" unicode="&#x201a;" horiz-adv-x="216" 
d="M172 49q0 -44 -30 -88t-81 -71l-12 18q45 40 62 94q-28 1 -45 18.5t-17 41.5t17 41.5t41 17.5q30 0 47.5 -20.5t17.5 -51.5z" />
    <glyph glyph-name="quotedblleft" unicode="&#x201c;" horiz-adv-x="354" 
d="M316 577q0 -24 -17 -41t-41 -17q-30 0 -47.5 20.5t-17.5 51.5q0 43 30 87t81 71l12 -18q-45 -39 -62 -93q28 -1 45 -18.5t17 -42.5zM155 577q0 -24 -17.5 -41t-41.5 -17q-30 0 -47.5 20.5t-17.5 51.5q0 43 30 87t82 71l11 -18q-45 -39 -62 -93q28 -1 45.5 -18.5
t17.5 -42.5z" />
    <glyph glyph-name="quotedblright" unicode="&#x201d;" horiz-adv-x="354" 
d="M323 673q0 -43 -30 -87t-82 -71l-11 18q45 39 62 93q-28 1 -45.5 18.5t-17.5 42.5q0 24 17.5 41t41.5 17q30 0 47.5 -20.5t17.5 -51.5zM161 673q0 -43 -30 -87t-81 -71l-12 18q45 39 62 93q-28 1 -45 18.5t-17 42.5q0 24 17 41t41 17q30 0 47.5 -20.5t17.5 -51.5z" />
    <glyph glyph-name="quotedblbase" unicode="&#x201e;" horiz-adv-x="378" 
d="M333 48q0 -43 -29.5 -87t-81.5 -71l-11 18q45 40 62 94q-28 1 -45.5 18.5t-17.5 41.5t17.5 41.5t41.5 17.5q30 0 47 -20.5t17 -52.5zM172 48q0 -43 -30 -87t-81 -71l-12 18q45 40 62 94q-28 1 -45 18.5t-17 41.5t17 41.5t41 17.5q31 0 48 -20.5t17 -52.5z" />
    <glyph glyph-name="dagger" unicode="&#x2020;" horiz-adv-x="460" 
d="M428 474h-144v-327h-103v327h-148v95h148v164h103v-164h144v-95z" />
    <glyph glyph-name="daggerdbl" unicode="&#x2021;" horiz-adv-x="460" 
d="M433 283h-149v-136h-103v136h-143v96h143v123h-148v95h148v136h103v-136h144v-95h-144v-123h149v-96z" />
    <glyph glyph-name="bullet" unicode="&#x2022;" horiz-adv-x="431" 
d="M377 366q0 -68 -47 -116t-114 -48t-114.5 48t-47.5 116q0 69 47 117t115 48q67 0 114 -48t47 -117z" />
    <glyph glyph-name="ellipsis" unicode="&#x2026;" horiz-adv-x="771" 
d="M69 58q0 27 19 46t46 19t46 -19t19 -46q0 -28 -19 -47t-46 -19t-46 19t-19 47zM321 58q0 27 19 46t46 19t46 -19t19 -46q0 -28 -19 -47t-46 -19t-46 19t-19 47zM573 58q0 27 19 46t46 19t46 -19t19 -46q0 -28 -19 -47t-46 -19t-46 19t-19 47z" />
    <glyph glyph-name="perthousand" unicode="&#x2030;" horiz-adv-x="1010" 
d="M236 443q0 38 -13.5 61t-39.5 23q-25 0 -39 -23t-14 -61t14 -61t39 -23q26 0 39.5 23t13.5 61zM316 443q0 -63 -36 -107t-98 -44q-61 0 -96.5 44t-35.5 107t36 106.5t98 43.5t97 -43.5t35 -106.5zM616 557l-474 -575l-52 44l474 574zM576 141q0 38 -13.5 61t-39.5 23
t-39.5 -23t-13.5 -61t14 -61.5t39 -23.5t39 23.5t14 61.5zM656 141q0 -63 -36 -107t-98 -44t-96.5 43.5t-34.5 107.5q0 63 35.5 106.5t97.5 43.5t97 -43.5t35 -106.5zM880 141q0 38 -13.5 61t-38.5 23q-26 0 -39.5 -23t-13.5 -61t14 -61.5t39 -23.5t38.5 23.5t13.5 61.5z
M960 141q0 -63 -36 -107t-97 -44q-62 0 -97 44t-35 107q0 62 36 106t98 44q61 0 96 -43.5t35 -106.5z" />
    <glyph glyph-name="guilsinglleft" unicode="&#x2039;" horiz-adv-x="303" 
d="M259 9h-106l-105 164l105 163h106l-109 -163z" />
    <glyph glyph-name="guilsinglright" unicode="&#x203a;" horiz-adv-x="303" 
d="M255 173l-105 -164h-106l109 164l-109 163h106z" />
    <glyph glyph-name="fraction" unicode="&#x2044;" horiz-adv-x="578" 
d="M551 557l-474 -575l-51 44l474 574z" />
    <glyph glyph-name="Euro" unicode="&#x20ac;" horiz-adv-x="649" 
d="M92 323h-64v75h81q32 88 111 142t185 54q100 0 189 -55l-40 -88q-77 43 -152 43q-126 0 -174 -96h252v-75h-274q-2 -20 -2 -33q0 -12 2 -32h274v-74h-250q24 -45 69.5 -70.5t107.5 -25.5q77 0 153 44l36 -88q-90 -56 -191 -56q-108 0 -187 53.5t-110 142.5h-80v74h64
q-1 10 -1 32q0 23 1 33z" />
    <glyph glyph-name="published" unicode="&#x2117;" horiz-adv-x="842" 
d="M495 426q0 26 -18.5 43.5t-52.5 17.5q-16 0 -36 -3v-121q12 -1 30 -1q77 0 77 64zM572 427q0 -58 -39.5 -94t-110.5 -36q-6 0 -17 0.5t-17 0.5v-116h-75v369q70 6 99 6q76 0 118 -36.5t42 -93.5zM792 366q0 -157 -108.5 -267.5t-262.5 -110.5t-262.5 110.5t-108.5 267.5
t108.5 268t262.5 111t262.5 -111t108.5 -268zM725 366q0 133 -89 226.5t-215 93.5t-215 -93.5t-89 -226.5q0 -132 89 -225.5t215 -93.5t215 93.5t89 225.5z" />
    <glyph glyph-name="servicemark" unicode="&#x2120;" horiz-adv-x="473" 
d="M26 530l16 44q31 -20 59 -20q26 0 26 20q0 10 -8 16.5t-33 17.5q-52 24 -52 66q0 28 20.5 45.5t56.5 17.5q38 0 64 -17l-14 -44q-28 17 -49 17q-26 0 -26 -18q0 -9 8.5 -15.5t33.5 -17.5q52 -22 52 -66q0 -29 -21 -48.5t-58 -19.5q-43 0 -75 22zM447 511h-49l-3 109
l-61 -78h-6l-62 78l-2 -109h-50l11 224h7l100 -126l98 126h7z" />
    <glyph glyph-name="trademark" unicode="&#x2122;" horiz-adv-x="503" 
d="M477 511h-49l-3 109l-61 -78h-6l-62 78l-2 -109h-50l11 224h7l100 -126l98 126h7zM210 683h-66v-172h-54v172h-66v50h186v-50z" />
    <glyph glyph-name="arrowleft" unicode="&#x2190;" horiz-adv-x="708" 
d="M658 222h-456l148 -129l-63 -69l-254 237v13l254 237l63 -69l-148 -129h456v-91z" />
    <glyph glyph-name="arrowright" unicode="&#x2192;" horiz-adv-x="708" 
d="M50 313h456l-147 129l63 69l254 -237v-13l-254 -237l-63 69l147 129h-456v91z" />
    <glyph glyph-name="minus" unicode="&#x2212;" 
d="M60 245v87h339v-87h-339z" />
    <glyph glyph-name="G.alt" horiz-adv-x="825" 
d="M419 377h374q9 -174 -92 -281.5t-262 -107.5q-160 0 -272 106t-112 272t114.5 272.5t273.5 106.5q137 0 261 -76l-56 -100q-98 61 -199 61q-121 0 -190.5 -75t-69.5 -189q0 -116 73 -191.5t179 -75.5q91 0 149.5 47.5t72.5 121.5h-244v109z" />
    <glyph glyph-name="M.alt" horiz-adv-x="883" 
d="M813 0h-123l-10 455l-231 -326h-15l-233 325l-8 -454h-123l31 742l19 2l325 -452l317 452l20 -2z" />
    <glyph glyph-name="Gbreve.alt" horiz-adv-x="825" 
d="M419 377h374q9 -174 -92 -281.5t-262 -107.5q-160 0 -272 106t-112 272t114.5 272.5t273.5 106.5q137 0 261 -76l-56 -100q-98 61 -199 61q-121 0 -190.5 -75t-69.5 -189q0 -116 73 -191.5t179 -75.5q91 0 149.5 47.5t72.5 121.5h-244v109zM588 938q0 -58 -39 -98
t-104 -40t-103.5 40t-38.5 98l88 7q0 -33 14 -51t40 -18q55 0 55 69z" />
    <glyph glyph-name="Gcommaaccent.alt" horiz-adv-x="825" 
d="M511 -151q0 -46 -33.5 -95.5t-87.5 -76.5l-12 19q53 45 69 104q-30 1 -48 19.5t-18 45.5q0 26 18 44t43 18q32 0 50.5 -22.5t18.5 -55.5zM419 377h374q9 -174 -92 -281.5t-262 -107.5q-160 0 -272 106t-112 272t114.5 272.5t273.5 106.5q137 0 261 -76l-56 -100
q-98 61 -199 61q-121 0 -190.5 -75t-69.5 -189q0 -116 73 -191.5t179 -75.5q91 0 149.5 47.5t72.5 121.5h-244v109z" />
    <glyph glyph-name="Gdotaccent.alt" horiz-adv-x="825" 
d="M419 377h374q9 -174 -92 -281.5t-262 -107.5q-160 0 -272 106t-112 272t114.5 272.5t273.5 106.5q137 0 261 -76l-56 -100q-98 61 -199 61q-121 0 -190.5 -75t-69.5 -189q0 -116 73 -191.5t179 -75.5q91 0 149.5 47.5t72.5 121.5h-244v109zM384 869q0 26 18 44.5t44 18.5
t44.5 -18.5t18.5 -44.5t-18.5 -44.5t-44.5 -18.5q-25 0 -43.5 18.5t-18.5 44.5z" />
    <glyph glyph-name="zero.lin" horiz-adv-x="704" 
d="M650 366q0 -162 -80.5 -270t-218.5 -108q-139 0 -218 107.5t-79 270.5q0 162 80 270.5t219 108.5q138 0 217.5 -108t79.5 -271zM514 366q0 126 -44 198t-118 72q-75 0 -118 -71.5t-43 -198.5t43.5 -198.5t118.5 -71.5t118 71.5t43 198.5z" />
    <glyph glyph-name="one.lin" horiz-adv-x="441" 
d="M323 0h-125v603l-126 -44l-35 97l246 90h40v-746z" />
    <glyph glyph-name="two.lin" horiz-adv-x="580" 
d="M522 0h-485l-3 63q134 132 229 239q109 129 109 218q0 48 -32.5 81t-92.5 33q-76 0 -152 -52l-45 101q98 62 209 62q116 0 180 -60t64 -155q0 -97 -112 -240q-31 -40 -163 -178h294v-112z" />
    <glyph glyph-name="three.lin" horiz-adv-x="569" 
d="M514 230q0 -101 -74.5 -171.5t-196.5 -70.5q-94 0 -199 34l34 102q83 -28 156 -28q68 0 109 36t41 89q0 49 -43.5 81t-120.5 32q-37 0 -92 -11l-25 58l231 240h-279v112h458l3 -73l-232 -231q107 -5 168.5 -58.5t61.5 -140.5z" />
    <glyph glyph-name="four.lin" horiz-adv-x="630" 
d="M599 181h-105v-181h-124v181h-342v78l390 486h76v-458h105v-106zM370 287v242l-195 -242h195z" />
    <glyph glyph-name="five.lin" horiz-adv-x="597" 
d="M537 232q0 -105 -77 -174.5t-207 -69.5q-97 0 -194 33l29 106q78 -31 155 -31q80 0 123 34.5t43 90.5t-44.5 94t-126.5 38q-78 0 -138 -17l-11 13v384h417v-112h-292v-167q48 4 68 4q123 0 189 -63.5t66 -162.5z" />
    <glyph glyph-name="six.lin" horiz-adv-x="621" 
d="M571 239q0 -101 -70 -176.5t-188 -75.5q-116 0 -187 75t-71 190q0 309 410 511l56 -101q-98 -43 -183 -108t-124 -131q54 45 130 45q103 0 165 -67t62 -162zM444 233q0 60 -35 100.5t-92 40.5q-59 0 -96 -38.5t-37 -100.5q0 -60 38 -102t94 -42q57 0 92.5 41.5
t35.5 100.5z" />
    <glyph glyph-name="seven.lin" horiz-adv-x="563" 
d="M551 733l-316 -733h-134l278 619h-334v114h506z" />
    <glyph glyph-name="eight.lin" horiz-adv-x="598" 
d="M548 194q0 -87 -69 -146.5t-181 -59.5q-111 0 -180 59.5t-69 146.5q0 59 30.5 105.5t87.5 70.5q-48 25 -74 69.5t-26 99.5q0 88 63.5 147t167.5 59t168 -58.5t64 -146.5q0 -54 -27.5 -100t-73.5 -70q58 -24 88.5 -70.5t30.5 -105.5zM409 522q0 51 -29.5 83t-81.5 32
q-51 0 -81 -32t-30 -83q0 -48 30.5 -77.5t80.5 -29.5t80.5 29.5t30.5 77.5zM419 212q0 50 -33.5 81.5t-87.5 31.5q-53 0 -85.5 -31.5t-32.5 -81.5q0 -49 33 -82t86 -33q54 0 87 33t33 82z" />
    <glyph glyph-name="nine.lin" horiz-adv-x="627" 
d="M50 494q0 101 71.5 176t191.5 75q117 0 188.5 -77t71.5 -192q0 -161 -105.5 -284.5t-310.5 -222.5l-58 100q100 42 182 102.5t128 128.5q-52 -39 -130 -39q-100 0 -164.5 67t-64.5 166zM179 499q0 -62 36.5 -102.5t94.5 -40.5q60 0 95.5 40.5t35.5 100.5q0 59 -36.5 100
t-92.5 41q-60 0 -96.5 -40.5t-36.5 -98.5z" />
    <glyph glyph-name="fraction.lin" horiz-adv-x="705" 
d="M675 707l-590 -722l-55 47l591 721z" />
    <glyph glyph-name="ampersand.cap" horiz-adv-x="733" 
d="M367 353q50 -60 138 -137q67 67 127 146l82 -67q-68 -86 -128 -148l106 -85l-76 -79l-113 91q-115 -86 -219 -86t-173.5 57t-69.5 150q0 65 43 117.5t115 82.5q-48 77 -48 149q0 83 61.5 141.5t147.5 58.5q90 0 144 -54t54 -125q0 -69 -49 -123.5t-142 -88.5zM421 145
q-106 95 -167 171q-36 -16 -59.5 -45.5t-23.5 -66.5q0 -48 34 -79.5t89 -31.5q58 0 127 52zM311 428q61 21 96 55t35 76q0 37 -22.5 60.5t-58.5 23.5q-38 0 -62.5 -29t-24.5 -72q0 -57 37 -114z" />
    <glyph glyph-name="guillemotleft.cap" horiz-adv-x="472" 
d="M432 207h-106l-105 164l105 163h106l-109 -163zM259 207h-106l-105 164l105 163h106l-109 -163z" />
    <glyph glyph-name="guillemotright.cap" horiz-adv-x="472" 
d="M425 371l-105 -164h-107l110 164l-110 163h107zM252 371l-105 -164h-107l110 164l-110 163h107z" />
    <glyph glyph-name="guilsinglleft.cap" horiz-adv-x="303" 
d="M259 207h-106l-105 164l105 163h106l-109 -163z" />
    <glyph glyph-name="guilsinglright.cap" horiz-adv-x="303" 
d="M255 371l-105 -164h-106l109 164l-109 163h106z" />
    <glyph glyph-name="hyphen.cap" horiz-adv-x="345" 
d="M297 327h-248v87h248v-87z" />
    <glyph glyph-name="endash.cap" horiz-adv-x="500" 
d="M450 332h-400v77h400v-77z" />
    <glyph glyph-name="emdash.cap" horiz-adv-x="750" 
d="M700 332h-650v77h650v-77z" />
    <glyph glyph-name="slash.cap" horiz-adv-x="356" 
d="M342 839l-238 -949h-90l239 949h89z" />
    <glyph glyph-name="backslash.cap" horiz-adv-x="356" 
d="M342 -110h-90l-238 949h89z" />
    <glyph glyph-name="bar.cap" horiz-adv-x="267" 
d="M177 -110h-87v949h87v-949z" />
    <glyph glyph-name="parenleft.cap" horiz-adv-x="360" 
d="M368 -58l-52 -75q-129 82 -197.5 214.5t-68.5 282.5t68.5 283t197.5 214l52 -74q-109 -70 -164 -180t-55 -243q0 -132 55 -242t164 -180z" />
    <glyph glyph-name="parenright.cap" horiz-adv-x="360" 
d="M310 364q0 -150 -68 -282.5t-198 -214.5l-52 75q109 70 164.5 180t55.5 242t-55.5 242.5t-164.5 180.5l52 74q130 -81 198 -213.5t68 -283.5z" />
    <glyph glyph-name="bracketleft.cap" horiz-adv-x="322" 
d="M300 -110h-221v949h221v-87h-126v-776h126v-86z" />
    <glyph glyph-name="bracketright.cap" horiz-adv-x="322" 
d="M244 -110h-221v86h125v776h-125v87h221v-949z" />
    <glyph glyph-name="braceleft.cap" horiz-adv-x="311" 
d="M299 -117q-92 0 -140.5 47t-48.5 135v194q0 34 -13.5 49.5t-48.5 15.5h-23v81h23q35 0 48.5 15.5t13.5 49.5v193q0 88 48.5 135.5t140.5 47.5v-93q-48 0 -70 -22.5t-22 -77.5v-176q0 -47 -15 -70t-58 -43q43 -20 58 -42.5t15 -70.5v-175q0 -56 22 -78.5t70 -22.5v-92z
" />
    <glyph glyph-name="braceright.cap" horiz-adv-x="311" 
d="M286 324h-23q-35 0 -48.5 -15.5t-13.5 -49.5v-194q0 -88 -48 -135t-141 -47v92q48 0 70.5 23t22.5 78v175q0 48 14.5 70.5t57.5 42.5q-43 19 -57.5 42.5t-14.5 70.5v176q0 55 -22.5 77.5t-70.5 22.5v93q92 0 140.5 -47.5t48.5 -135.5v-193q0 -34 13.5 -49.5t48.5 -15.5
h23v-81z" />
    <glyph glyph-name="at.cap" horiz-adv-x="862" 
d="M802 398q0 -126 -84 -188q-35 -26 -85 -26q-79 0 -102 65q-50 -60 -122 -60q-51 0 -84.5 28t-33.5 75q0 46 32 74t87 28q45 0 88 -19v10q0 37 -18.5 54.5t-63.5 17.5q-37 0 -79 -14l-10 71q60 16 105 16q79 0 113 -36.5t34 -110.5v-80q0 -30 17 -44.5t41 -14.5
q30 0 45 14q23 17 37 53t14 78q0 51 -16.5 100.5t-50 94t-94 71.5t-139.5 27q-125 0 -213.5 -93t-88.5 -224q0 -136 90 -225t250 -89q69 0 149 29l18 -62q-100 -30 -170 -30q-183 0 -295.5 108.5t-112.5 268.5q0 155 110.5 268t262.5 113q88 0 160.5 -31t116.5 -82
t68 -111.5t24 -123.5zM498 284v32q-28 21 -63 21q-23 0 -39 -12t-16 -31q0 -20 14.5 -31.5t39.5 -11.5q40 0 64 33z" />
    <glyph glyph-name="registered.alt" horiz-adv-x="842" 
d="M421 -12q-154 0 -262.5 110.5t-108.5 267.5t108.5 268t262.5 111t262.5 -111t108.5 -268t-108.5 -267.5t-262.5 -110.5zM421 47q126 0 215 93.5t89 225.5q0 133 -89 226.5t-215 93.5t-215 -93.5t-89 -226.5q0 -132 89 -225.5t215 -93.5zM299 182v369q62 6 103 6
q79 0 118.5 -33.5t39.5 -87.5q0 -73 -69 -108l93 -146h-86l-72 127h-18q-22 0 -34 1v-128h-75zM374 487v-115q22 -2 32 -2q35 0 55 16.5t20 46.5q0 26 -18.5 41.5t-50.5 15.5q-20 0 -38 -3z" />
    <glyph glyph-name="dollar.lin" horiz-adv-x="545" 
d="M282 835l71 -3l-8 -89q82 -12 148 -55l-50 -101q-48 33 -109 45l-19 -206q104 -47 145 -95t41 -121q0 -89 -61 -152t-165 -69l-8 -92l-70 3l8 92q-98 13 -184 71l51 103q66 -47 143 -59l20 222q-3 0 -5 2q-97 40 -136 87.5t-39 121.5q0 79 59.5 138.5t159.5 66.5z
M373 200q0 30 -15.5 52t-56.5 45l-16 -192q43 6 65.5 32.5t22.5 62.5zM181 546q0 -28 15.5 -48t52.5 -40l15 175q-40 -7 -61.5 -31t-21.5 -56z" />
    <glyph glyph-name="sterling.lin" horiz-adv-x="603" 
d="M561 0h-512v106h94v208h-88v15l88 82v91q0 110 61 176.5t179 66.5q96 0 170 -55l-51 -104q-60 45 -122 45q-56 0 -86 -34.5t-30 -100.5v-82h170v-100h-170v-208h297v-106z" />
    <glyph glyph-name="Euro.lin" horiz-adv-x="774" 
d="M124 410h-84v78h99q35 115 133.5 186t236.5 71q121 0 232 -66l-48 -94q-92 54 -188 54q-88 0 -149.5 -41t-91.5 -110h341v-78h-362q-4 -19 -4 -43q0 -25 3 -49h363v-79h-339q31 -65 94 -104.5t152 -39.5t189 57l43 -94q-112 -70 -239 -70q-134 0 -230.5 69t-134.5 182
h-100v79h84q-2 11 -2 47q0 35 2 45z" />
    <glyph glyph-name="yen.lin" horiz-adv-x="705" 
d="M676 736l-37.5 -60.5l-72.5 -116.5l-82 -131l-32 -53h160v-85h-199v-81h199v-83h-199v-126h-120v126h-199v83h199v81h-199v85h161l-226 361h140l185 -321l186 321h136z" />
    <glyph glyph-name="cent.lin" horiz-adv-x="442" 
d="M205 78l6 78q-79 17 -127 75t-48 139q0 91 60 152.5t152 69.5l6 75l68 -3l-7 -74q56 -10 105 -40l-37 -81q-40 22 -75 29l-22 -256q46 1 101 32l33 -81q-68 -42 -141 -43l-6 -75zM145 371q0 -85 74 -118l21 246q-44 -9 -69.5 -41.5t-25.5 -86.5z" />
    <glyph glyph-name="numbersign.lin" horiz-adv-x="781" 
d="M724 451h-129l-37 -170h129l-23 -99h-128l-41 -182h-108l40 182h-153l-41 -182h-109l40 182h-129l23 99h128l37 170h-128l22 99h127l41 183h109l-40 -183h153l41 183h108l-39 -183h129zM328 453l-40 -174h165l38 174h-163z" />
    <glyph glyph-name="paragraph.lin" horiz-adv-x="715" 
d="M635 0h-102v628q-25 4 -88 6v-634h-102v195q-132 -2 -222.5 65.5t-90.5 190.5q0 130 105.5 211t290.5 81q96 0 209 -15v-728zM343 306v321q-90 -10 -137 -56t-47 -117q0 -70 52 -110t132 -38z" />
    <glyph glyph-name="section.lin" horiz-adv-x="556" 
d="M501 368q0 -67 -75 -112q48 -39 48 -101q0 -72 -57.5 -119.5t-153.5 -47.5q-118 0 -216 70l44 97q39 -27 87.5 -45.5t85.5 -18.5q41 0 62.5 15.5t21.5 40.5q0 24 -30 40t-73 28.5t-86 28.5t-73 47.5t-30 76.5q0 73 74 114q-45 35 -45 93q0 73 58 121.5t149 48.5
q98 0 181 -51l-41 -98q-78 48 -146 48q-36 0 -57.5 -15.5t-21.5 -39.5q0 -23 30.5 -39t73.5 -28t86 -28t73.5 -48t30.5 -78zM391 351q0 8 -2.5 15.5t-8.5 14t-12.5 11.5t-18 10.5l-20.5 9.5t-24 9l-25.5 8.5t-28.5 9t-29 8.5q-26 -7 -40.5 -23.5t-14.5 -38.5q0 -9 2.5 -16
t8.5 -13.5t12.5 -12t17.5 -10.5l20 -9t24.5 -8.5t26 -8t29.5 -9l30 -8.5q53 17 53 61z" />
    <glyph glyph-name="degree.lin" horiz-adv-x="391" 
d="M335 609q0 -56 -39 -96t-100 -40t-100.5 40t-39.5 96q0 57 39 96.5t101 39.5t100.5 -39.5t38.5 -96.5zM260 609q0 33 -18.5 53.5t-45.5 20.5q-28 0 -46.5 -20.5t-18.5 -53.5t18.5 -53t46.5 -20q27 0 45.5 20.5t18.5 52.5z" />
    <glyph glyph-name="percent.lin" horiz-adv-x="875" 
d="M388 557q0 -79 -45 -133.5t-122 -54.5t-121.5 54.5t-44.5 133.5t44.5 133.5t122.5 54.5t122 -54.5t44 -133.5zM299 558q0 49 -19.5 80.5t-57.5 31.5q-37 0 -57.5 -31.5t-20.5 -80.5t20 -80.5t58 -31.5q37 0 57 31.5t20 80.5zM756 704l-591 -721l-53 46l589 721zM813 177
q0 -79 -45 -134t-123 -55q-77 0 -121 55t-44 134t44.5 133.5t122.5 54.5q77 0 121.5 -54.5t44.5 -133.5zM723 176q0 49 -19.5 80.5t-57.5 31.5q-37 0 -57.5 -31.5t-20.5 -80.5t20 -80.5t58 -31.5q37 0 57 31.5t20 80.5z" />
    <glyph glyph-name="perthousand.lin" horiz-adv-x="1253" 
d="M299 558q0 49 -19.5 80.5t-57.5 31.5q-37 0 -57.5 -31.5t-20.5 -80.5t20 -80.5t58 -31.5q37 0 57 31.5t20 80.5zM388 557q0 -79 -45 -133.5t-122 -54.5t-121.5 54.5t-44.5 133.5t44.5 133.5t122.5 54.5t122 -54.5t44 -133.5zM756 704l-591 -721l-53 46l589 721zM723 176
q0 49 -19.5 80.5t-57.5 31.5q-37 0 -57.5 -31.5t-20.5 -80.5t20 -80.5t58 -31.5q37 0 57 31.5t20 80.5zM813 177q0 -79 -45 -134t-123 -55q-77 0 -121 55t-44 134t44.5 133.5t122.5 54.5q77 0 121.5 -54.5t44.5 -133.5zM1103 176q0 49 -19.5 80.5t-58.5 31.5
q-37 0 -57 -31.5t-20 -80.5t19.5 -80.5t57.5 -31.5q37 0 57.5 31.5t20.5 80.5zM1192 177q0 -79 -44.5 -134t-122.5 -55t-122 55t-44 134t45 133.5t122 54.5t121.5 -54.5t44.5 -133.5z" />
    <glyph glyph-name="quotedbl.cap" horiz-adv-x="415" 
d="M229 709l-148 -196l-49 33l110 220zM403 699l-148 -197l-50 33l111 221z" />
    <glyph glyph-name="quotesingle.cap" horiz-adv-x="252" 
d="M229 709l-148 -196l-49 33l110 220z" />
    <glyph glyph-name="plus.lin" 
d="M399 328h-124v-131h-91v131h-124v87h124v131h91v-131h124v-87z" />
    <glyph glyph-name="minus.lin" 
d="M60 328v87h339v-87h-339z" />
    <glyph glyph-name="divide.lin" 
d="M60 329v84h339v-84h-339zM172 512q0 24 17 41t41 17t40.5 -17t16.5 -41q0 -23 -16.5 -40t-40.5 -17t-41 17t-17 40zM172 230q0 24 17 41t41 17t40.5 -17t16.5 -41t-16.5 -41t-40.5 -17t-41 17t-17 41z" />
    <glyph glyph-name="equal.lin" horiz-adv-x="431" 
d="M371 409h-311v85h311v-85zM371 249h-311v84h311v-84z" />
    <glyph glyph-name="multiply.lin" horiz-adv-x="449" 
d="M62 476l60 61l102 -105l103 105l61 -61l-104 -105l104 -105l-61 -60l-103 104l-102 -104l-60 60l103 105z" />
    <glyph glyph-name="less.lin" horiz-adv-x="394" 
d="M355 195l-65 -68l-252 243l252 244l65 -69l-185 -176z" />
    <glyph glyph-name="greater.lin" horiz-adv-x="394" 
d="M356 371l-251 -244l-66 70l185 175l-185 175l66 67z" />
    <glyph glyph-name="florin.lin" horiz-adv-x="525" 
d="M500 730l-21 -107q-34 9 -53 9q-59 0 -90.5 -37t-40.5 -113l-7 -65h138v-101h-150l-37 -316h-120l37 316h-89l-1 9l101 91l8 70q14 125 76 190.5t169 65.5q48 0 80 -12z" />
    <glyph glyph-name="arrowleft.cap" horiz-adv-x="708" 
d="M658 325h-456l148 -129l-63 -69l-254 237v13l254 237l63 -69l-148 -129h456v-91z" />
    <glyph glyph-name="arrowright.cap" horiz-adv-x="708" 
d="M50 416h456l-147 129l63 69l254 -237v-13l-254 -237l-63 69l147 129h-456v91z" />
    <glyph glyph-name="hcoslug" horiz-adv-x="694" 
d="M273 18h-26q0 -12 10 -12q8 0 9 7h7q-3 -14 -18 -14q-21 0 -21 20q0 9 6 15t14 6q21 0 19 -22zM254 35q-7 0 -7 -12h14q0 12 -7 12zM195 78q8 0 8 16q0 15 -8 15t-8 -15q0 -16 8 -16zM210 4q8 0 8 16q0 15 -8 15t-8 -15q0 -16 8 -16zM210 -1q-21 0 -21 21q0 20 21 20
t21 -20q0 -9 -6 -15t-15 -6zM546 4q8 0 8 16q0 15 -8 15t-8 -15q0 -16 8 -16zM546 -1q-21 0 -21 21q0 20 21 20t21 -20q0 -9 -6 -15t-15 -6zM125 74v7h7v41h-7v7h51v-20h-8q-2 13 -11 13h-12v-18h4q5 0 6 8h7v-23h-7q-1 8 -6 8h-4v-16h10v-7h-30zM195 73q-21 0 -21 21
q0 20 21 20t21 -20q0 -9 -6 -15t-15 -6zM644 -100v800h-594v-800h594zM498 -1q-29 0 -29 28q0 13 8 21.5t19 8.5q9 0 16 -7l1 6h8v-22h-8q-5 16 -15 16q-14 0 -14 -22t16 -22q12 0 14 16h8q-2 -23 -24 -23zM372 80q7 0 7 13t-7 13q-8 0 -8 -13t8 -13zM276 0v7h6v25h-7v7h7v1
q0 19 19 19q5 0 9 -2l10 2v-52h6v-7h-23v7h5v25h-14v-25h5v-7h-23zM368 0v7h6v25h-6v7h18v-10q4 11 12 11t8 -8q0 -7 -7 -7q-6 0 -6 6v1q-3 0 -7 -9v-16h8v-7h-26zM352 73v52h-6v7h18v-27q3 9 13 9q15 0 15 -20q0 -21 -16 -21q-9 0 -14 8l-4 -8h-6zM400 75q5 0 6.5 -4
t-1.5 -6q6 0 8 8l-16 33h-5v7h25v-7h-6l9 -20l8 20h-5v7h17v-7h-5l-13 -31q-6 -16 -18 -16q-11 0 -11 9q0 7 7 7zM247 428q0 13 7.5 21t19.5 8q13 0 21 -10.5t8 -27.5q0 -22 -18 -50q-15 14 -21 20.5t-11.5 17t-5.5 21.5zM302 74v14h7q6 -9 12 -9q5 0 5 4q0 3 -12 6.5
t-12 12.5q0 12 14 12q8 0 11 -5l2 5h6v-13h-7q-5 7 -10 7t-5 -4q0 -3 12 -6t12 -12q0 -13 -14 -13q-5 0 -13 5l-1 -4h-7zM261 219q-22 0 -37 15.5t-15 38.5q0 24 16 40q34 -32 74 -82q-15 -12 -38 -12zM274 122l12 2v-11h13v-7h-13v-20q0 -5 4 -5t5 7l5 -2q-3 -13 -14 -13
q-12 0 -12 13v20h-7v7h7v9zM428 306q-26 -16 -46 -42q35 -41 62 -41q26 0 43 29l7 -2q-1 -43 -24 -68.5t-56 -25.5q-41 0 -85 45q-41 -45 -104 -45q-45 0 -77 27t-32 66q0 63 82 91q-31 32 -31 69q0 34 30.5 59.5t78.5 25.5q44 0 69.5 -22.5t25.5 -51.5q0 -19 -9 -34
q46 2 49 -37q25 38 60 38q21 0 35.5 -14.5t14.5 -37.5t-14.5 -38.5t-35.5 -15.5q-28 0 -43 25zM219 74v7h6v25h-6v7h17v-10q5 11 14 11q12 0 12 -14v-19h6v-7h-22v7h4v18q0 7 -6 7q-7 0 -7 -10v-15h4v-7h-22zM446 33h18v-7h-5q-3 -6 -9 -14q3 -5 6 -5t4 5l5 -1
q-3 -12 -13 -12q-7 0 -12 6q-6 -6 -15 -6q-18 0 -18 14q0 11 13 15q-6 6 -6 12q0 14 17 14q14 0 14 -12q0 -7 -11 -12q3 -3 6.5 -7t5.5 -6q4 5 6 9h-6v7zM429 6q3 0 8 3q-10 12 -14 16q-4 -4 -4 -9q0 -10 10 -10zM294 42v-3h14v5q-6 0 -6 6l1 3q-1 1 -3 1q-6 0 -6 -12z
M425 43q0 -4 6 -10q5 3 5 9t-6 6q-5 0 -5 -5zM312 342q30 20 42 34q29 -29 -1 -80q-33 38 -41 46zM366 18h-26q0 -12 10 -12q8 0 9 7h7q-4 -14 -18 -14q-21 0 -21 20q0 9 6 15t14 6q21 0 19 -22zM347 35q-7 0 -7 -12h14q0 12 -7 12zM124 0v7h8v41h-8v7h29v-7h-8v-16h22v16
h-8v7h29v-7h-8v-41h8v-7h-29v7h8v18h-22v-18h8v-7h-29zM576 13q7 0 7 -7t-7 -7t-7 7t7 7z" />
    <glyph glyph-name="caron.alt" horiz-adv-x="213" 
d="M96 739l90 -17q0 -121 -97 -193l-51 33q54 64 58 177z" />
    <glyph glyph-name="NUL" horiz-adv-x="0" 
 />
    </font>
</defs>
</svg>
